<svg width="73" height="64" viewBox="0 0 73 64" fill="none" xmlns="http://www.w3.org/2000/svg">
<g id="Group 1598915">
<circle id="Ellipse 32" cx="36.2336" cy="31.8457" r="30.793" fill="#6C5D55"/>
<path id="image 179 (Traced)" fill-rule="evenodd" clip-rule="evenodd" d="M34.0115 0.842845C32.1332 0.992719 29.7876 1.39223 28.169 1.838C22.7028 3.34345 18.0126 6.07727 14.0142 10.0886C12.9682 11.1381 12.7652 11.3652 11.7404 12.6324C9.1262 15.865 7.14219 19.7545 5.95182 23.9809L5.84414 24.3631H4.23085C2.11918 24.3631 1.7836 24.426 1.14879 24.9405C0.800136 25.223 0.540886 25.6556 0.425043 26.1478C0.295982 26.6966 0.295982 37.8479 0.425043 38.3966C0.6006 39.1428 1.08981 39.7102 1.80898 40.0019C2.16122 40.1448 2.88285 40.1813 5.34909 40.1813H5.84414L5.95129 40.5635C6.88248 43.885 8.33284 47.0598 10.134 49.7188C10.8242 50.7377 11.0329 51.028 11.5197 51.6462C15.0227 56.0946 19.6043 59.5343 24.7122 61.5508C31.5631 64.2555 38.9362 64.5041 45.9677 62.2674C47.8214 61.6778 50.1943 60.6314 51.9751 59.6182C53.3842 58.8165 55.5119 57.3047 56.9372 56.0924C57.6271 55.5056 59.6128 53.5227 60.0919 52.9422C61.3074 51.4693 62.194 50.2938 62.6928 49.4937C62.8282 49.2766 63.0759 48.8795 63.2432 48.6113C64.6638 46.3351 65.8978 43.4791 66.7206 40.5635L66.8284 40.1813H68.4839C69.4554 40.1813 70.2848 40.1505 70.4914 40.1067C71.2207 39.952 71.7576 39.5348 72.086 38.8673L72.3046 38.423L72.3239 32.5728C72.3371 28.5445 72.3204 26.5866 72.2702 26.2862C72.1356 25.4818 71.6265 24.851 70.8636 24.5434C70.5394 24.4126 70.364 24.3993 68.6682 24.3767L66.8252 24.3521L66.719 23.9755C64.8209 17.2463 60.9891 11.5367 55.55 7.33349C54.6283 6.62121 54.3998 6.46183 53.2079 5.70036C51.3786 4.53168 49.9736 3.80696 47.9936 3.01074C45.0648 1.83294 41.8773 1.0976 38.5684 0.836331C37.5775 0.758104 35.0281 0.76176 34.0115 0.842845ZM39.4582 2.06231C39.9879 2.12086 40.78 2.23046 41.2184 2.3059C41.6568 2.38126 42.1052 2.45331 42.2148 2.46607C42.4991 2.4991 44.2203 2.93144 45.0046 3.16679C47.1354 3.80623 49.4239 4.7853 51.2816 5.85223C52.8888 6.77527 54.8608 8.16122 56.0207 9.18282C57.5412 10.5222 58.466 11.4595 59.6283 12.8396C62.1784 15.8673 64.3457 19.8699 65.3626 23.4297C65.4651 23.7889 65.5691 24.1458 65.5935 24.2229L65.638 24.3631H59.6927H53.7474L53.294 23.4825C52.3685 21.6846 51.3532 20.3081 49.8233 18.777C48.1866 17.1392 46.949 16.2345 44.9632 15.2243C40.7701 13.0913 36.1733 12.5909 31.5276 13.7617C29.1236 14.3675 26.4695 15.6954 24.4465 17.3045C23.144 18.3405 21.4015 20.2183 20.5486 21.5052C19.8991 22.4851 19.7843 22.6792 19.3591 23.5157L18.9285 24.3631H12.9789C8.24648 24.3631 7.03578 24.3461 7.06109 24.28C7.07856 24.2344 7.18995 23.853 7.30852 23.4326C8.06548 20.7496 9.68376 17.4391 11.5158 14.8257C12.3345 13.6578 13.8747 11.8095 14.6398 11.0766C14.7699 10.952 14.8579 10.8203 14.8354 10.7839C14.8129 10.7474 14.8245 10.7362 14.861 10.7588C14.8976 10.7814 15.0143 10.708 15.1204 10.5955C15.415 10.2831 16.997 8.86573 17.3785 8.57236C17.5645 8.42933 17.8946 8.17325 18.112 8.00331C18.7643 7.4934 20.6456 6.26025 21.391 5.85402C21.7746 5.64493 22.1183 5.44993 22.1549 5.42062C22.1914 5.39131 22.7294 5.12905 23.3505 4.8378C25.1599 3.98934 26.2174 3.59122 28.0665 3.06238C30.1514 2.46607 31.8597 2.17264 34.6093 1.93842C35.3031 1.87934 38.5545 1.96241 39.4582 2.06231ZM36.263 4.67052C36.2592 4.77267 36.2481 4.96089 36.2382 5.08883C36.2284 5.21678 36.2006 6.46542 36.1764 7.86367L36.1324 10.4059H36.6329H37.1334L37.1416 9.22616C37.1461 8.57735 37.1559 7.92681 37.1635 7.78059C37.171 7.63437 37.1861 6.8418 37.1971 6.01932L37.217 4.5239L36.7435 4.50436L36.2699 4.48482L36.263 4.67052ZM39.3701 4.73293C39.3508 4.80072 39.315 4.9908 39.2905 5.1553C39.2659 5.31979 39.1285 6.05255 38.9851 6.78364C38.6422 8.53129 38.3196 10.3521 38.3476 10.3802C38.3991 10.4317 39.2628 10.5859 39.2846 10.5475C39.2977 10.5244 39.33 10.356 39.3563 10.1733C39.4172 9.75108 39.9819 6.80238 40.0066 6.77759C40.0168 6.76742 40.3385 7.71193 40.7214 8.87656L41.4177 10.994L41.8704 11.0722C42.1194 11.1152 42.3368 11.1367 42.3536 11.12C42.3703 11.1031 42.5337 10.2702 42.7167 9.26883C42.8995 8.2675 43.1379 6.993 43.2464 6.43651C43.3549 5.88001 43.4436 5.41145 43.4436 5.39523C43.4436 5.35495 42.8098 5.22176 42.6184 5.22176C42.4708 5.22176 42.4536 5.27646 42.2256 6.46794C42.0945 7.15338 41.9531 7.93844 41.9113 8.2126C41.8696 8.48676 41.8144 8.74975 41.7885 8.79701C41.7618 8.84559 41.4736 8.08133 41.1244 7.03574C40.3209 4.62984 40.3912 4.78463 40.08 4.73472C39.939 4.71212 39.7294 4.6747 39.6144 4.65164C39.4461 4.61788 39.3983 4.63376 39.3701 4.73293ZM31.3213 4.93617C30.0787 5.20501 28.7536 5.51938 28.6855 5.56152C28.6271 5.59761 28.6521 5.80238 28.7832 6.363C28.8801 6.77713 29.1718 8.04298 29.4316 9.17604C29.6913 10.3091 29.916 11.2484 29.931 11.2634C29.9619 11.2943 30.5174 11.1782 32.0391 10.8229C33.0857 10.5785 33.0889 10.5772 33.0484 10.4087C32.8898 9.74896 32.8786 9.72663 32.7285 9.7683C32.15 9.92887 30.7479 10.2198 30.7143 10.1862C30.6916 10.1635 30.6029 9.85217 30.5172 9.49447C30.4316 9.1367 30.346 8.77999 30.3271 8.70176C30.298 8.5806 30.3297 8.55289 30.5414 8.51494C31.0796 8.41837 32.3208 8.12048 32.3738 8.07515C32.4047 8.04877 32.3924 7.85948 32.3466 7.65464C32.2846 7.37762 32.2338 7.28211 32.1481 7.28211C32.0848 7.28211 31.6578 7.37184 31.1992 7.4815C30.1198 7.73965 30.1133 7.73938 30.0308 7.43166C29.9297 7.05381 29.7556 6.20116 29.7758 6.18202C29.7856 6.17271 30.227 6.07016 30.7567 5.95418C31.2864 5.83814 31.7722 5.72854 31.8362 5.7106C31.9585 5.6763 31.9537 5.60698 31.7926 5.08571L31.7198 4.8499L31.3213 4.93617ZM24.8118 7.05946C24.6975 7.08897 24.3551 7.23911 22.9693 7.86739C22.8327 7.92933 22.7206 8.01274 22.7202 8.05275C22.7198 8.09283 23.081 8.8854 23.5229 9.81402C23.9648 10.7427 24.4144 11.6931 24.5223 11.9261C24.9549 12.8617 25.1845 13.3302 25.2103 13.3302C25.2251 13.3302 25.6946 13.1099 26.2534 12.8407C27.7075 12.14 28.0874 11.6923 28.1519 10.6036C28.2294 9.29488 27.3591 7.74144 26.2642 7.23426C25.8806 7.05654 25.1593 6.96974 24.8118 7.05946ZM47.6668 8.09914C47.3774 8.61849 46.9423 9.38733 46.6998 9.80771C46.0593 10.9179 46.0009 11.076 46.0009 11.7002C46.0009 12.1627 46.0252 12.275 46.184 12.5452C46.7425 13.496 48.0939 13.9599 48.9488 13.4943C49.1305 13.3954 49.3536 13.2357 49.4444 13.1396C49.6195 12.9543 50.1066 12.1802 50.4972 11.4664C50.7641 10.9788 51.1403 10.3197 51.2923 10.0736C51.3488 9.98217 51.4866 9.74018 51.5986 9.53588L51.8021 9.16435L51.3636 8.90767C51.1225 8.76657 50.9155 8.6795 50.9037 8.71426C50.8919 8.74909 50.6836 9.12148 50.4407 9.54186C50.1978 9.96224 49.9095 10.4707 49.8001 10.6717C49.2933 11.6026 48.736 12.4724 48.5722 12.5883C48.254 12.8132 48.0017 12.8272 47.5974 12.642C47.1615 12.4423 46.9647 12.1649 46.9643 11.7496C46.964 11.3668 47.0251 11.2353 47.9981 9.52577C48.4612 8.71213 48.8948 7.94987 48.9617 7.83183L49.0835 7.61722L48.6844 7.3832C48.465 7.25447 48.2646 7.15045 48.2391 7.15205C48.2137 7.15357 47.9562 7.5798 47.6668 8.09914ZM25.7985 8.05581C26.5129 8.41564 27.1698 9.59576 27.1698 10.5193C27.1698 11.2869 26.8891 11.6352 25.9575 12.0234L25.7083 12.1272L25.369 11.4161C24.629 9.86567 23.9815 8.46788 23.9815 8.42083C23.9815 8.37749 24.702 8.01487 24.9779 7.91936C25.131 7.86633 25.566 7.93864 25.7985 8.05581ZM19.2965 10.3548C19.115 10.5008 18.9111 10.6592 18.8434 10.707C18.7268 10.789 18.7603 10.8949 19.4663 12.6767C19.8767 13.7124 20.339 14.8888 20.4938 15.2909C20.6485 15.693 20.8235 16.1364 20.8824 16.2762L20.9898 16.5303L21.3897 16.2224C21.6096 16.0531 21.7895 15.8857 21.7895 15.8505C21.7895 15.8152 21.694 15.5587 21.5773 15.2805L21.3651 14.7746L21.536 14.634C21.6301 14.5566 21.9667 14.2867 22.284 14.0342L22.861 13.5749L23.3599 13.922L23.8588 14.269L24.2211 13.9894C24.4204 13.8356 24.5967 13.6882 24.613 13.6618C24.654 13.5953 24.5248 13.4912 23.6494 12.8854C23.2293 12.5947 22.2279 11.8946 21.4242 11.3297C20.6205 10.7648 19.8872 10.2546 19.7947 10.196C19.6318 10.0928 19.6161 10.0979 19.2965 10.3548ZM53.0418 11.2471C52.7546 11.3981 52.4175 11.7321 52.2811 12.001C52.0021 12.5506 52.0411 12.9038 52.5123 14.0956C52.6756 14.509 52.8083 14.9171 52.807 15.0026C52.8017 15.3514 52.4168 15.7217 52.0587 15.7225C51.5198 15.7238 50.8222 14.9066 50.8181 14.269C50.8167 14.0524 50.8094 14.0462 50.6043 14.0872C50.4876 14.1106 50.2773 14.1606 50.137 14.1984C49.8868 14.2659 49.8828 14.2719 49.9272 14.5132C50.0051 14.9361 50.143 15.2604 50.3861 15.5917C51.236 16.7501 52.4624 17.007 53.2965 16.2015C53.9832 15.5384 54.0221 14.9157 53.4572 13.6293C53.0394 12.6776 53.0945 12.2334 53.6505 12.0739C54.1642 11.9264 54.9349 12.6724 54.9349 13.3172C54.9349 13.5028 54.9549 13.5322 55.0584 13.4993C55.1264 13.4778 55.3132 13.4218 55.4736 13.3748C55.7593 13.2913 55.765 13.284 55.7571 13.0161C55.7397 12.4309 55.1541 11.6309 54.5136 11.317C54.0772 11.1032 53.3785 11.07 53.0418 11.2471ZM20.3172 11.6243C20.5242 11.7827 21.0152 12.1481 21.4083 12.4365C21.8013 12.7249 22.1133 12.9899 22.1014 13.0254C22.0767 13.0998 20.9906 13.9507 20.9631 13.9173C20.953 13.9052 20.7756 13.4864 20.5689 12.9868C20.3621 12.4873 20.1191 11.9115 20.0289 11.7074C19.9387 11.5033 19.882 11.3364 19.9029 11.3364C19.9238 11.3364 20.1102 11.4659 20.3172 11.6243ZM15.669 13.6175C15.3502 14.0043 15.1472 14.3021 15.1472 14.3831C15.1472 14.4208 15.287 14.6555 15.4579 14.9046C16.3449 16.1972 17.2727 17.5875 17.2727 17.6243C17.2727 17.6472 17.2204 17.6498 17.1565 17.6302C16.9502 17.567 15.1374 16.9399 14.3246 16.6505C13.6754 16.4195 13.5258 16.3863 13.4825 16.4638C13.4534 16.5156 13.2781 16.7478 13.0928 16.9797C12.9075 17.2117 12.7559 17.4105 12.7559 17.4217C12.7559 17.4403 14.0259 18.4296 14.7557 18.9796C14.9254 19.1075 15.3446 19.4268 15.687 19.689C16.0294 19.9512 16.5625 20.3594 16.8717 20.5963L17.4339 21.0267L17.7194 20.6589C18.0501 20.2326 18.0561 20.2506 17.4329 19.7822C17.0475 19.4924 16.7811 19.2888 15.3555 18.1943C15.0135 17.9317 14.7556 17.7168 14.7826 17.7168C14.8095 17.7168 15.3136 17.8842 15.9027 18.0887C16.4918 18.2933 17.4032 18.6064 17.9281 18.7845L18.8823 19.1082L19.0004 18.9623C19.117 18.8181 19.1035 18.794 17.8897 16.9956C17.2139 15.9941 16.7015 15.1992 16.751 15.229C16.8004 15.2589 17.2558 15.5991 17.7629 15.985C18.2699 16.3709 18.9699 16.9034 19.3186 17.1685C19.6672 17.4335 19.9708 17.6503 19.9933 17.6503C20.0513 17.6503 20.5275 17.0027 20.5275 16.9238C20.5275 16.8878 19.9095 16.3861 19.1543 15.8088C18.3991 15.2315 17.5696 14.5974 17.311 14.3998C17.0525 14.202 16.6288 13.8827 16.3694 13.6901L15.8979 13.3399L15.669 13.6175ZM38.6256 14.4341C41.9983 14.8628 45.2514 16.2803 47.8204 18.4409C49.6415 19.9726 51.3199 22.0491 52.2709 23.9475L52.4789 24.3626L37.0179 24.3795C28.5144 24.3888 21.2512 24.3869 20.8775 24.3753L20.1979 24.3543L20.405 23.9433C21.7986 21.1783 24.3108 18.514 27.1034 16.8396C30.5471 14.7748 34.6186 13.9248 38.6256 14.4341ZM57.6915 15.6712C57.1196 15.8842 55.3603 16.5041 53.6265 17.1034L52.5505 17.4753L52.6522 17.6459C52.7081 17.7397 52.8522 17.9331 52.9725 18.0756L53.1911 18.3346L53.6953 18.1506C53.9725 18.0494 54.2417 17.9828 54.2933 18.0027C54.3791 18.0356 55.3998 19.3991 55.3998 19.4808C55.3998 19.5002 55.2504 19.7112 55.0677 19.9497C54.8851 20.1882 54.7356 20.4119 54.7356 20.4468C54.7356 20.4817 54.8667 20.6907 55.027 20.9111L55.3184 21.3118L55.9071 20.5328C56.2309 20.1043 56.6005 19.6115 56.7283 19.4377C56.8562 19.2639 57.185 18.8306 57.459 18.4748C57.733 18.119 58.2022 17.5039 58.5017 17.1078L59.0462 16.3877L58.7026 15.9224C58.5137 15.6665 58.3284 15.4607 58.2909 15.4651C58.2535 15.4696 57.9837 15.5623 57.6915 15.6712ZM36.1227 17.0023C36.0254 17.2308 35.8476 17.6506 35.7275 17.9353C35.4775 18.5279 35.5919 18.4744 34.3436 18.5827C33.8504 18.6254 33.4348 18.672 33.4201 18.6862C33.4054 18.7003 33.4798 18.7796 33.5854 18.8624C33.691 18.9451 34.0161 19.2296 34.3078 19.4947C34.5994 19.7598 34.8613 19.9766 34.8897 19.9766C34.9774 19.9766 34.9504 20.176 34.7345 21.1258C34.62 21.63 34.5419 22.0581 34.561 22.0772C34.5801 22.0963 34.9732 21.8858 35.4345 21.6092C35.8959 21.3327 36.2982 21.1064 36.3285 21.1064C36.393 21.1064 37.3886 21.6743 37.7896 21.9398C37.9416 22.0405 38.0841 22.1048 38.1061 22.0826C38.1283 22.0605 38.0526 21.63 37.938 21.1258C37.8234 20.6216 37.73 20.1773 37.7304 20.1384C37.7311 20.072 38.6642 19.1946 39.0875 18.8624C39.193 18.7796 39.2672 18.7003 39.2525 18.6861C39.2377 18.672 38.8222 18.626 38.329 18.584C37.8358 18.5419 37.3718 18.4952 37.298 18.4803C37.1961 18.4596 37.0691 18.2278 36.7715 17.5199C36.5557 17.0068 36.3613 16.5869 36.3393 16.5869C36.3174 16.5869 36.2198 16.7739 36.1227 17.0023ZM57.7129 16.7032C57.6586 16.7672 57.2598 17.265 56.8266 17.8095L56.0392 18.7994L55.9145 18.6402C55.8459 18.5527 55.6412 18.2791 55.4596 18.0322C55.132 17.587 55.1305 17.5828 55.2812 17.5179C55.5907 17.3847 57.6936 16.5962 57.7516 16.5917C57.7847 16.5891 57.7673 16.6393 57.7129 16.7032ZM29.4583 18.8799C29.3599 19.0992 29.2253 19.4034 29.1592 19.5558C29.0419 19.8262 29.0297 19.8339 28.6524 19.8739C28.4398 19.8964 28.106 19.9361 27.9107 19.9623L27.5557 20.0098L28.1172 20.4915L28.6788 20.9732L28.524 21.6214C28.4389 21.9778 28.3684 22.3061 28.3673 22.3509C28.3663 22.3967 28.5318 22.3308 28.7474 22.1995C28.9575 22.0715 29.2496 21.905 29.3966 21.8297L29.6639 21.6927L30.2452 22.0403C30.5649 22.2315 30.8383 22.3762 30.8527 22.3618C30.867 22.3474 30.8226 22.0665 30.7539 21.7377C30.6853 21.4088 30.6279 21.09 30.6264 21.0293C30.6251 20.9686 30.8704 20.7144 31.1719 20.4644L31.7198 20.0098L31.2881 19.9574C31.0506 19.9286 30.7079 19.8838 30.5265 19.8577L30.1966 19.8104L29.9168 19.1458L29.6372 18.4811L29.4583 18.8799ZM42.7447 19.1659L42.4775 19.8104L42.0971 19.8602C41.8878 19.8877 41.5448 19.9325 41.3347 19.9599L40.9527 20.0098L41.5007 20.469C41.8021 20.7216 42.048 20.9758 42.0472 21.034C42.0465 21.0921 41.9869 21.4065 41.9148 21.7327C41.8427 22.0588 41.7978 22.3397 41.8149 22.3568C41.832 22.3739 42.1031 22.2342 42.4174 22.0463C42.7317 21.8583 43.0144 21.7046 43.0457 21.7046C43.0769 21.7046 43.3486 21.8541 43.6494 22.0369C44.1898 22.3653 44.3089 22.4166 44.3052 22.3194C44.3042 22.2919 44.2337 21.9778 44.1486 21.6214L43.9938 20.9732L44.5557 20.4915L45.1176 20.0098L44.6958 19.9574C44.4637 19.9286 44.1277 19.8838 43.9491 19.8577L43.6243 19.8104L43.3667 19.2144C43.225 18.8866 43.0872 18.5965 43.0605 18.5699C43.0337 18.5433 42.8916 18.8115 42.7447 19.1659ZM59.6842 28.492C60.0619 28.6108 60.7137 29.0199 60.7137 29.1382C60.7137 29.1685 60.5863 29.3913 60.4306 29.6335L60.1475 30.0737L59.9356 29.9079C59.4792 29.5505 58.7847 29.3581 58.2668 29.4457C58.1089 29.4724 57.8978 29.58 57.7467 29.7107C57.5041 29.9206 57.4922 29.9495 57.4922 30.3318C57.4922 30.8795 57.5999 30.9792 58.8539 31.593C60.4689 32.3835 60.8771 32.8692 60.8771 34.0003C60.8771 34.7198 60.7103 35.1213 60.2176 35.5876C59.8055 35.9776 59.5232 36.108 58.8992 36.1965C57.9285 36.3343 56.8157 36.0435 56.1402 35.4757L55.9175 35.2884L56.2291 34.8065L56.5407 34.3245L56.7508 34.4976C57.1291 34.8092 57.7668 35.077 58.2168 35.1132C58.756 35.1564 59.0513 35.0557 59.3477 34.7274C59.5586 34.4938 59.5845 34.4252 59.5845 34.0999C59.5845 33.7716 59.5594 33.7068 59.3354 33.4574C59.1594 33.2615 58.9012 33.0946 58.4553 32.8887C57.4488 32.4238 57.1451 32.2553 56.8315 31.988C56.0099 31.2876 55.9329 30.003 56.6574 29.0876C56.9025 28.778 57.5248 28.4389 57.9983 28.3569C58.4623 28.2765 59.1825 28.3342 59.6842 28.492ZM6.86952 29.298C7.03784 29.7824 7.33602 30.6721 7.5321 31.2753C7.72825 31.8784 7.97249 32.6067 8.07491 32.8937L8.2611 33.4154L8.81281 31.7638C9.1163 30.8554 9.35084 30.0732 9.33397 30.0256C9.31717 29.978 9.3274 29.954 9.35676 29.9721C9.38611 29.9903 9.52633 29.6479 9.66841 29.2112L9.92673 28.4174H10.7767H11.6267V32.2722V36.1271H10.9957H10.3647L10.358 33.5516C10.3542 32.1352 10.3546 30.8715 10.3586 30.7436C10.3627 30.6156 9.94161 31.7761 9.42291 33.3223L8.4797 36.1336L8.24316 36.1137L8.00663 36.0938L7.0767 33.3024L6.14677 30.5109L6.12943 33.319L6.1121 36.1271H5.4818H4.85151V32.2722V28.4174H5.70751H6.56358L6.86952 29.298ZM16.7925 28.9823C16.878 29.2747 17.1235 30.0972 17.3379 30.81C17.5524 31.5228 17.7564 32.2107 17.7914 32.3387C17.8265 32.4666 18.05 33.2143 18.2881 34.0003C18.5263 34.7862 18.7673 35.5862 18.8236 35.7781L18.9261 36.1271H18.2461H17.566L17.4826 35.8114C17.4367 35.6378 17.3396 35.2938 17.2667 35.047L17.1342 34.5984H15.8583H14.5823L14.3832 35.3461L14.184 36.0938L13.5032 36.1128C13.0947 36.1241 12.8223 36.1059 12.8223 36.0672C12.8223 36.0318 12.8524 35.9238 12.8891 35.8271C12.9258 35.7305 13.1481 35.0033 13.3831 34.2111C13.6182 33.4189 13.928 32.3819 14.0716 31.9067C14.4112 30.7832 14.456 30.5784 14.3469 30.6458C14.292 30.6798 14.2797 30.6708 14.3112 30.6198C14.3377 30.577 14.3811 30.5555 14.4078 30.572C14.4518 30.5992 14.6679 29.9565 14.9933 28.831L15.114 28.4139L15.8755 28.4322L16.637 28.4506L16.7925 28.9823ZM23.5327 28.6075C24.36 28.9358 25.0769 29.6986 25.3733 30.566C25.6487 31.3719 25.7067 32.6809 25.5068 33.5819C25.3911 34.1043 24.9803 34.859 24.6122 35.226C23.878 35.9579 23.2855 36.1242 21.4076 36.1259L20.1289 36.1271V32.2668V28.4065L21.6401 28.4313C23.0233 28.454 23.1835 28.4689 23.5327 28.6075ZM31.4874 28.9823V29.5472H29.9928H28.4983V30.5774C28.4983 31.144 28.5207 31.6078 28.5481 31.6082C28.5756 31.6086 29.2181 31.6122 29.9762 31.6164L31.3545 31.6238V32.1806V32.7375H29.9264H28.4983V33.8673V34.9972H29.9928H31.4874V35.5621V36.1271H29.3618H27.2363V32.2722V28.4174H29.3618H31.4874V28.9823ZM37.1998 32.2722V36.1271H36.5699H35.94L35.9223 34.4821C35.9125 33.5774 35.9128 31.8427 35.9229 30.6273L35.9413 28.4174H36.5705H37.1998V32.2722ZM40.7186 29.0654C41.1176 29.7961 41.7821 30.9895 42.4486 32.1725C42.6957 32.6112 42.9596 33.0897 43.035 33.2359L43.1721 33.5018L43.175 30.9596L43.1779 28.4174H43.8089H44.44V32.2747V36.1321L43.8322 36.113L43.2246 36.0938L42.763 35.2631C42.5091 34.8061 42.0602 33.9986 41.7653 33.4685C41.4706 32.9385 41.1808 32.4151 41.1216 32.3054C41.0623 32.1958 40.8656 31.841 40.6844 31.5171L40.3549 30.9282L40.3375 33.5301L40.3202 36.1321L39.7065 36.1129L39.0929 36.0938L39.0771 32.2556L39.0614 28.4174H39.7131H40.3648L40.7186 29.0654ZM50.4181 30.9972C50.4181 33.7379 50.4568 34.2069 50.7157 34.6047C50.9904 35.0266 51.7568 35.2468 52.3124 35.0633C52.6769 34.9429 53.0602 34.568 53.1464 34.2475C53.1943 34.0698 53.2164 33.0262 53.2113 31.1974L53.2034 28.4174H53.8699H54.5363L54.5352 31.0925C54.5339 33.9801 54.5006 34.3463 54.1821 34.9753C53.9847 35.3651 53.5045 35.8256 53.1162 35.9975C52.6538 36.2022 51.9365 36.2847 51.3623 36.1992C50.5364 36.0763 50.0636 35.8055 49.6403 35.2132C49.2098 34.6108 49.2012 34.5397 49.1735 31.3251L49.1484 28.4174H49.7832H50.4181V30.9972ZM65.4962 28.4454C65.4962 28.4608 65.6271 28.902 65.787 29.4257C65.947 29.9495 66.2745 31.036 66.5147 31.8402C66.755 32.6444 67.1323 33.9026 67.3531 34.6362C67.574 35.3698 67.7546 36.0053 67.7546 36.0485C67.7546 36.1037 67.5586 36.1271 67.0968 36.1271H66.4391L66.2998 35.6681C66.2232 35.4157 66.1603 35.1839 66.1601 35.153C66.1599 35.1221 66.1286 34.9848 66.0905 34.8477L66.0214 34.5984H64.7401H63.4589L63.3444 35.0138C63.2815 35.2423 63.1848 35.5862 63.1296 35.7781L63.0291 36.1271H62.3644H61.6995L61.746 35.9111C61.7887 35.7119 62.0475 34.8447 63.1121 31.3317C63.3298 30.6134 63.5021 30.0003 63.495 29.9692C63.4879 29.9382 63.5148 29.8338 63.5548 29.7373C63.5948 29.6409 63.7078 29.3044 63.8058 28.9896L63.9842 28.4174H64.7402C65.156 28.4174 65.4962 28.43 65.4962 28.4454ZM21.391 32.2722V34.9972L22.0718 34.9943C22.817 34.9911 23.1197 34.9137 23.4891 34.6317C24.5201 33.8449 24.6591 31.2273 23.7277 30.1385C23.3442 29.6903 22.9553 29.5486 22.105 29.5479L21.391 29.5472V32.2722ZM64.5024 30.5913C64.1814 31.7703 63.7554 33.2916 63.7199 33.3855C63.6957 33.4497 63.9249 33.4685 64.7324 33.4685C65.6494 33.4685 65.7714 33.456 65.7365 33.3652C65.7147 33.3083 65.4868 32.4953 65.23 31.5584C64.9733 30.6215 64.7525 29.8443 64.7395 29.8313C64.7264 29.8183 64.6198 30.1602 64.5024 30.5913ZM15.5186 31.026C15.3454 31.6566 15.1312 32.4324 15.0425 32.7499C14.9539 33.0676 14.8815 33.3591 14.8815 33.398C14.8815 33.4446 15.2192 33.4685 15.8778 33.4685C16.4258 33.4685 16.8742 33.4454 16.8742 33.4169C16.8742 33.3885 16.6808 32.6835 16.4445 31.8501C16.2081 31.0167 15.9956 30.2324 15.9721 30.1072C15.9487 29.982 15.9078 29.8795 15.8815 29.8795C15.8551 29.8795 15.6918 30.3955 15.5186 31.026ZM19.2958 40.9127C19.5006 41.3149 19.755 41.786 19.861 41.9595C19.9672 42.1329 20.135 42.4095 20.234 42.574C21.0952 44.0045 23.2312 46.3204 24.7454 47.4652C27.5028 49.55 30.4761 50.7757 33.945 51.2576C35.0936 51.4172 37.5789 51.4172 38.7275 51.2576C42.1216 50.7861 45.1074 49.5779 47.7425 47.6098C50.062 45.8771 52.0223 43.561 53.3124 41.0287L53.7441 40.1813H59.6937C64.4261 40.1813 65.6368 40.1983 65.6115 40.2644C65.594 40.3101 65.4857 40.6796 65.3708 41.0855C64.489 44.2011 62.501 48.0667 60.3879 50.7745C58.5547 53.1237 56.0931 55.4802 53.7725 57.1078C49.449 60.14 44.7918 61.8833 39.3918 62.4908C37.9417 62.6539 34.6372 62.6533 33.2476 62.4896C27.6673 61.8322 23.0506 60.0755 18.7008 56.9545C17.6849 56.2255 17.1534 55.816 16.7373 55.4414C16.5706 55.2914 16.2867 55.0377 16.1063 54.8776C14.0885 53.087 12.1565 50.791 10.5732 48.3022C9.82737 47.1298 8.60172 44.7219 8.17794 43.5966C8.06933 43.3083 7.87677 42.7983 7.7499 42.4632C7.62303 42.1281 7.4233 41.515 7.30606 41.1007C7.18882 40.6864 7.07856 40.3101 7.06109 40.2644C7.03578 40.1983 8.24602 40.1813 12.9764 40.1813H18.9235L19.2958 40.9127ZM52.2708 40.5967C51.1162 42.8984 49.0619 45.2631 46.7834 46.9132C44.9098 48.2703 42.311 49.416 40.056 49.8793C38.0276 50.2961 35.696 50.3619 33.6681 50.0598C30.3513 49.5656 27.1326 48.0903 24.6457 45.9244C22.8763 44.3833 21.3402 42.4593 20.4209 40.6327L20.1937 40.1813H36.3364H52.4791L52.2708 40.5967ZM29.3291 42.515C29.1613 42.9068 29.0217 43.14 28.9335 43.1759C28.8586 43.2064 28.5357 43.2506 28.216 43.2742C27.8964 43.2978 27.635 43.3368 27.6353 43.3609C27.6355 43.385 27.8702 43.6108 28.1567 43.8627L28.6778 44.3206L28.5202 44.9881C28.4334 45.3552 28.3706 45.6793 28.3806 45.7084C28.3905 45.7375 28.6731 45.5944 29.0084 45.3904L29.6182 45.0196L30.2373 45.3853C30.5778 45.5864 30.8641 45.7437 30.8736 45.7348C30.883 45.7259 30.8308 45.4265 30.7574 45.0695C30.6839 44.7124 30.6239 44.3944 30.6239 44.3628C30.6239 44.3311 30.7349 44.2073 30.8705 44.0876C31.0061 43.9679 31.2514 43.7461 31.4156 43.5948L31.714 43.3196L31.0527 43.271C30.689 43.2444 30.3444 43.1981 30.287 43.1682C30.1863 43.1157 30.1339 43.0131 29.8219 42.2583C29.7425 42.0663 29.6575 41.9094 29.6329 41.9094C29.6084 41.9094 29.4717 42.1819 29.3291 42.515ZM36.0723 42.4244C35.9567 42.7078 35.7896 43.0974 35.7007 43.2903C35.6119 43.4832 35.5392 43.6675 35.5392 43.6998C35.5392 43.7719 35.273 43.814 34.2473 43.9042C33.8108 43.9427 33.4438 43.9839 33.4318 43.9958C33.4198 44.0079 33.7526 44.3134 34.1713 44.6749C34.59 45.0364 34.9345 45.3824 34.9369 45.4437C34.9394 45.5051 34.8503 45.9495 34.7391 46.4314C34.6277 46.9134 34.5461 47.3358 34.5575 47.3702C34.569 47.4046 34.9515 47.2071 35.4075 46.9313C35.8635 46.6555 36.2821 46.4296 36.3375 46.4293C36.393 46.429 36.7676 46.6325 37.1698 46.8814C37.9775 47.3811 38.1297 47.4556 38.1297 47.3513C38.1297 47.3126 38.04 46.8927 37.9304 46.4181C37.8209 45.9435 37.7312 45.5134 37.7312 45.4621C37.7312 45.411 38.0751 45.0644 38.4954 44.6919C38.9158 44.3195 39.2503 44.0054 39.2388 43.9939C39.2273 43.9824 38.846 43.9416 38.3915 43.9032C37.2143 43.8039 37.1482 43.7894 37.0952 43.6185C37.0701 43.5375 36.9959 43.3516 36.9302 43.2054C36.8645 43.0592 36.7162 42.7078 36.6005 42.4244C36.4849 42.1411 36.366 41.9094 36.3363 41.9094C36.3066 41.9094 36.1878 42.1411 36.0723 42.4244ZM42.7408 42.5194C42.4423 43.219 42.4645 43.2049 41.5513 43.2743L40.9541 43.3196L41.509 43.8291L42.0639 44.3386L41.9231 45.0289C41.8457 45.4086 41.79 45.7265 41.7993 45.7354C41.8086 45.7442 42.0554 45.605 42.3476 45.426C42.6399 45.247 42.9168 45.082 42.963 45.0594C43.0091 45.0367 43.3229 45.1862 43.6603 45.3914C43.9977 45.5967 44.2823 45.739 44.2927 45.7077C44.3032 45.6763 44.2411 45.3508 44.1547 44.9843L43.9976 44.318L44.5676 43.8282L45.1374 43.3383L44.4338 43.2656C44.0468 43.2257 43.7007 43.1747 43.6646 43.1523C43.6285 43.13 43.4832 42.8412 43.3416 42.5106C43.2001 42.1799 43.0656 41.9094 43.0427 41.9094C43.0199 41.9094 42.8841 42.1839 42.7408 42.5194ZM16.1968 43.9589C15.5868 44.4218 14.5608 45.1893 13.9169 45.6645C13.273 46.1397 12.6818 46.5776 12.6031 46.6377C12.4777 46.7335 12.4704 46.7661 12.5441 46.9036C12.5903 46.9897 12.7273 47.1784 12.8486 47.3229L13.0692 47.5856L14.4475 46.5586C15.2055 45.9937 15.964 45.4195 16.1329 45.2823C16.3018 45.1453 16.4625 45.0331 16.4901 45.0331C16.5177 45.0331 16.3156 45.3546 16.041 45.7476C15.7664 46.1406 15.3982 46.6714 15.223 46.9273C15.0477 47.1832 14.6888 47.7027 14.4254 48.0816C13.9631 48.747 13.9501 48.7762 14.0502 48.929C14.1072 49.0161 14.1637 49.0874 14.1757 49.0874C14.1876 49.0874 15.1488 48.7737 16.3116 48.3904C17.4744 48.0071 18.4361 47.7036 18.4485 47.7161C18.461 47.7286 17.7158 48.3015 16.7925 48.9893C15.8693 49.6771 15.1036 50.2475 15.091 50.257C15.0696 50.2731 15.3468 50.684 15.5759 50.9756C15.6714 51.0972 15.7077 51.0785 16.4244 50.5393C16.8362 50.2295 17.9279 49.4108 18.8503 48.7201C19.7727 48.0293 20.5264 47.4331 20.5251 47.3951C20.5218 47.2933 19.8705 46.4274 19.7675 46.3879C19.6939 46.3596 19.077 46.5509 16.2099 47.4907C16.1186 47.5206 15.9859 47.5685 15.915 47.5971C15.8265 47.6328 15.9005 47.4845 16.1523 47.122C16.3536 46.8321 16.8824 46.0722 17.3273 45.4333C17.7722 44.7943 18.1362 44.2409 18.1362 44.2035C18.1362 44.1252 17.4208 43.1444 17.3518 43.1282C17.3266 43.1222 16.8068 43.4961 16.1968 43.9589ZM54.1433 44.6658L53.7958 45.1688L54.6461 46.2475C55.1138 46.8407 55.7512 47.6437 56.0626 48.032C56.3739 48.4202 56.8788 49.0557 57.1844 49.4443C57.4901 49.8329 57.7594 50.1508 57.7828 50.1508C57.8829 50.1508 58.4009 49.2933 58.3516 49.2091C58.3231 49.1605 58.1523 48.9485 57.972 48.738C57.7918 48.5276 57.6596 48.3156 57.6783 48.2669C57.7619 48.0489 58.739 46.6947 58.8127 46.6947C58.8579 46.6947 59.1339 46.782 59.426 46.8886L59.9572 47.0826L60.265 46.626L60.5728 46.1693L57.6044 45.1926C55.9718 44.6555 54.6033 44.2041 54.5634 44.1894C54.5235 44.1748 54.3344 44.3892 54.1433 44.6658ZM56.5623 45.8414C57.1833 46.057 57.7305 46.2578 57.7781 46.2875C57.8592 46.338 57.6539 46.6878 57.1073 47.43L56.988 47.5919L56.7751 47.3559C56.658 47.2261 56.3829 46.9009 56.1637 46.6333C55.9445 46.3658 55.6597 46.0233 55.5308 45.8724C55.4019 45.7215 55.2527 45.5414 55.1992 45.4722C55.0819 45.3202 54.9881 45.2948 56.5623 45.8414ZM52.1034 47.415C51.7071 47.5521 51.5569 47.6452 51.1481 48.0075C50.1445 48.8969 50.3258 50.4448 51.4925 50.947C51.9587 51.1476 52.4684 51.1058 53.4736 50.7843C54.3634 50.4996 54.5826 50.506 54.9126 50.826C55.2012 51.1059 55.2099 51.401 54.9419 51.8239C54.692 52.2182 54.08 52.5434 53.5883 52.5434H53.2592L53.3047 52.8591C53.4008 53.5254 53.373 53.4949 53.8485 53.4566C54.3848 53.4136 54.8819 53.1746 55.3771 52.7216C56.2429 51.9299 56.3664 50.8829 55.6877 50.0894C55.1255 49.4322 54.433 49.3269 53.2233 49.7146C52.2536 50.0253 52.0724 50.0524 51.823 49.9233C51.5652 49.7899 51.4809 49.6341 51.4809 49.2913C51.4809 48.7901 52.1839 48.2233 52.8054 48.2233H53.0916L53.0483 48.0073C53.0245 47.8885 52.9871 47.6792 52.9652 47.5421C52.9274 47.3067 52.9118 47.293 52.6846 47.2951C52.5523 47.2962 52.2907 47.3502 52.1034 47.415ZM22.2257 48.8808C22.2049 48.9146 21.9711 49.0886 21.7064 49.2675C21.2263 49.5919 21.0415 49.7198 19.5971 50.7261C17.373 52.2758 17.0674 52.4928 17.0862 52.5087C17.4559 52.8206 17.8826 53.1416 17.9274 53.1416C17.9597 53.1416 18.1917 52.9917 18.4428 52.8084C18.694 52.6252 18.9389 52.4904 18.9869 52.5089C19.0696 52.5406 20.0393 53.2878 20.3688 53.5736L20.522 53.7065L20.2809 54.2878C20.1483 54.6075 20.0524 54.8788 20.0678 54.8907C20.0832 54.9026 20.2741 55.0553 20.4921 55.2301L20.8884 55.5478L21.0126 55.2586C21.0809 55.0995 21.2047 54.7899 21.2876 54.5706C21.3705 54.3512 21.8461 53.1586 22.3446 51.9201C22.843 50.6818 23.2508 49.6477 23.2508 49.6222C23.2508 49.5785 22.5116 48.9622 22.3421 48.8645C22.299 48.8396 22.2466 48.847 22.2257 48.8808ZM48.6911 50.178C48.4874 50.3015 48.3352 50.4391 48.3471 50.4889C48.3589 50.538 48.4664 50.7437 48.5859 50.9461C48.9178 51.5076 49.6937 52.8343 50.1089 53.5501C50.6927 54.5567 50.7165 54.9717 50.2162 55.4176C49.6291 55.9407 49.0342 55.8786 48.5643 55.2452C48.4246 55.0569 48.1961 54.6935 48.0567 54.4376C47.9171 54.1817 47.6927 53.7929 47.5581 53.5736C47.4234 53.3543 47.1002 52.8106 46.84 52.3654L46.3668 51.5559L45.9348 51.7962C45.6972 51.9283 45.5027 52.0568 45.5027 52.0816C45.5027 52.1264 46.5939 54.0033 46.9253 54.5285C47.0196 54.6781 47.0969 54.8164 47.0969 54.8358C47.0969 54.9758 47.8885 56.107 48.1182 56.2954C48.8393 56.8867 49.7738 56.8742 50.6477 56.2617C51.1106 55.9373 51.2491 55.7876 51.4129 55.4346C51.74 54.7299 51.6253 54.0736 50.9893 53.0087C50.76 52.6249 50.2651 51.78 49.8895 51.1311C49.5139 50.4822 49.1727 49.9526 49.1315 49.954C49.0901 49.9554 48.892 50.0562 48.6911 50.178ZM21.6377 51.1914C21.4026 51.734 21.1538 52.3201 21.0848 52.4939C20.9986 52.7109 20.9297 52.7988 20.8651 52.7743C20.7424 52.7276 19.7393 51.9249 19.7342 51.8694C19.7321 51.8458 19.9909 51.6365 20.3093 51.4041C20.6277 51.1717 21.1415 50.7953 21.451 50.5676C21.7605 50.3399 22.0253 50.1651 22.0394 50.1793C22.0536 50.1934 21.8727 50.6488 21.6377 51.1914ZM23.8287 53.6774C23.109 55.1785 22.5202 56.43 22.5202 56.4586C22.5202 56.5596 24.566 57.4676 24.9215 57.5244C26.1266 57.7169 27.3201 56.8587 27.9276 55.3627C28.2579 54.5494 28.2701 53.4643 27.9562 52.8352C27.8004 52.5231 27.3121 52.0215 27.0038 51.8567C26.7666 51.73 25.1732 50.9483 25.1521 50.9483C25.144 50.9483 24.5485 52.1764 23.8287 53.6774ZM26.8032 52.8543C27.1463 53.1877 27.2746 53.6827 27.1665 54.2559C27.0742 54.7455 26.6867 55.5694 26.3686 55.9523C26.2535 56.0909 26.0056 56.2925 25.8177 56.4003C25.3331 56.6784 24.9681 56.6683 24.3081 56.3584L23.7985 56.1191L24.3272 55.0125C24.618 54.4039 25.0362 53.5278 25.2566 53.0657L25.6573 52.2254L26.1146 52.4275C26.3662 52.5387 26.676 52.7308 26.8032 52.8543ZM29.4393 55.1521C28.6669 58.4685 28.5647 58.9158 28.5647 58.9824C28.5647 59.0409 29.2598 59.2173 31.0556 59.6145C31.4575 59.7034 31.7974 59.7652 31.8109 59.7519C31.8715 59.6921 32.0091 58.9547 31.9666 58.9176C31.9405 58.8948 31.4652 58.7776 30.9104 58.6573C30.3556 58.5369 29.8688 58.4182 29.8287 58.3934C29.7776 58.3617 29.8084 58.1011 29.9318 57.5228C30.0286 57.0688 30.1157 56.6885 30.1253 56.6778C30.1411 56.66 30.6968 56.7781 31.8 57.0338C32.399 57.1727 32.3845 57.1795 32.4703 56.7178C32.5124 56.4915 32.5372 56.2967 32.5254 56.2849C32.5137 56.2731 32.031 56.1591 31.4528 56.0314C30.8747 55.9037 30.389 55.7867 30.3736 55.7713C30.3091 55.7067 30.7127 54.205 30.7946 54.205C30.8417 54.205 31.2784 54.2959 31.765 54.407C32.2516 54.5181 32.7273 54.6256 32.8221 54.6459C33.0049 54.6849 32.9847 54.7242 33.1902 53.9307C33.213 53.8427 33.0842 53.7906 32.5022 53.6521C31.5372 53.4226 30.0011 53.0739 29.958 53.0746C29.9388 53.0749 29.7054 54.0098 29.4393 55.1521ZM42.0757 53.2585L41.6045 53.3532L41.7558 54.128C42.157 56.1821 42.3191 57.0804 42.293 57.1065C42.2676 57.1318 41.9478 56.7705 40.8199 55.4425C40.6372 55.2274 40.413 54.9555 40.3217 54.8382C40.2304 54.7209 39.9826 54.435 39.7712 54.2029L39.3867 53.7809L38.9077 53.8767C38.4325 53.9716 38.4288 53.974 38.4506 54.1718C38.4627 54.2814 38.662 55.3282 38.8937 56.498C39.1252 57.6677 39.3654 58.9089 39.4274 59.2562C39.4893 59.6035 39.5611 59.9107 39.5869 59.9389C39.6282 59.9841 40.4923 59.8405 40.5513 59.7786C40.5638 59.7654 40.4029 58.8799 40.1938 57.8106C39.9846 56.7414 39.8307 55.8678 39.8517 55.8694C39.8727 55.871 39.9647 55.9649 40.056 56.0781C40.258 56.3286 41.018 57.226 41.4584 57.7338C41.6357 57.9382 41.8474 58.1925 41.9287 58.2987C42.3051 58.79 42.8649 59.3781 42.9347 59.3555C42.9771 59.3417 43.1846 59.2965 43.3958 59.255L43.7798 59.1794L43.738 58.9354C43.5735 57.9761 42.6233 53.2336 42.5893 53.2025C42.5659 53.1812 42.3349 53.2064 42.0757 53.2585ZM36.2399 54.004C36.2293 54.0232 36.2303 54.0987 36.242 54.1718C36.2538 54.2449 36.2684 54.9548 36.2744 55.7493C36.2825 56.8045 36.3058 57.1818 36.3607 57.1489C36.411 57.1188 36.4097 57.1364 36.3567 57.202C36.3131 57.2559 36.2884 57.3589 36.3017 57.4307C36.3152 57.5026 36.3284 58.1371 36.3312 58.8408L36.3363 60.1202H36.8672H37.3981L37.3635 58.6414C37.3445 57.8281 37.3158 56.7589 37.2998 56.2654C37.2838 55.7719 37.2697 55.0448 37.2685 54.6496L37.2662 53.931L36.7627 53.9501C36.4857 53.9606 36.2505 53.9849 36.2399 54.004Z" fill="#FFE5D3"/>
</g>
</svg>
