<svg width="63" height="63" viewBox="0 0 63 63" fill="none" xmlns="http://www.w3.org/2000/svg">
<g id="GMP">
<circle id="Ellipse 33" cx="31.3644" cy="31.2798" r="30.793" fill="#6C5D55"/>
<g id="Vector">
<path fill-rule="evenodd" clip-rule="evenodd" d="M31.3624 11.5954C42.2322 11.5954 51.0468 20.4079 51.0468 31.2798C51.0468 42.1496 42.2322 50.9642 31.3624 50.9642C20.4905 50.9642 11.678 42.1496 11.678 31.2798C11.678 20.4079 20.4905 11.5954 31.3624 11.5954Z" fill="#FFE5D3"/>
<path d="M31.3624 52.7046C19.5501 52.7046 9.93952 43.094 9.93952 31.2818C9.93952 19.4695 19.5501 9.85893 31.3624 9.85893C43.1746 9.85893 52.7872 19.4675 52.7872 31.2798C52.7872 43.094 43.1766 52.7046 31.3624 52.7046ZM31.3624 10.7091C20.0193 10.7091 10.7917 19.9367 10.7917 31.2798C10.7917 42.6228 20.0193 51.8504 31.3624 51.8504C42.7054 51.8504 51.933 42.6228 51.933 31.2798C51.933 19.9367 42.7054 10.7091 31.3624 10.7091Z" fill="#FFE5D3"/>
<path d="M61.9567 27.7969C62.9192 36.2445 60.3646 44.2831 55.4601 50.4489C50.5535 56.6146 43.2949 60.9096 34.8473 61.8721C26.3997 62.8346 18.3611 60.28 12.1953 55.3755C6.02951 50.4689 1.73451 43.2103 0.772049 34.7627C-0.190416 26.3151 2.36412 18.2765 7.26868 12.1107C12.1752 5.94491 19.4338 1.64992 27.8815 0.687454C36.3291 -0.27501 44.3677 2.27953 50.5335 7.18409C56.6992 12.0906 60.9942 19.3472 61.9567 27.7969ZM55.0671 50.1381C59.8934 44.0705 62.4058 36.1623 61.4594 27.851C60.513 19.5417 56.2882 12.4014 50.2227 7.57509C44.1551 2.74673 36.2469 0.236299 27.9356 1.18272C19.6243 2.12915 12.484 6.35396 7.65768 12.4215C2.82932 18.489 0.318889 26.3973 1.26531 34.7066C2.20973 43.0178 6.43655 50.1581 12.5021 54.9845C18.5696 59.8108 26.4779 62.3233 34.7871 61.3768C43.1004 60.4284 50.2407 56.2056 55.0671 50.1381Z" fill="#FFE5D3"/>
<path d="M23.8511 37.0546C23.1874 37.4817 22.5017 37.7965 21.7879 38.011C21.078 38.2215 20.3401 38.3278 19.5822 38.3278C17.8678 38.3278 16.5103 37.6942 15.5078 36.429C14.5092 35.1637 14.0059 33.4493 14.0059 31.2838C14.0059 29.0962 14.5172 27.3718 15.5358 26.1146C16.5545 24.8593 17.952 24.2317 19.7266 24.2317C20.4123 24.2317 21.068 24.3159 21.6936 24.4864C22.3232 24.6528 22.9147 24.9055 23.4682 25.2423V28.0535C22.8927 27.6224 22.3212 27.2976 21.7558 27.087C21.1883 26.8725 20.6169 26.7662 20.0474 26.7662C18.9907 26.7662 18.1766 27.1592 17.6031 27.9372C17.0317 28.7172 16.7449 29.8321 16.7449 31.2818C16.7449 32.7215 17.0196 33.8343 17.5731 34.6163C18.1245 35.3983 18.9105 35.7913 19.9271 35.7913C20.2018 35.7913 20.4605 35.7693 20.6991 35.7211C20.9337 35.675 21.1462 35.6028 21.3367 35.5066V32.8618H19.7125V30.5138H23.8511V37.0546ZM26.1911 24.4744H29.5658L31.9098 31.749L34.2678 24.4744H37.6425V38.0672H35.13V28.1257L32.7559 35.4565H31.0756L28.7056 28.1257V38.0672H26.1931V24.4744H26.1911ZM40.2471 24.4744H44.6504C45.9618 24.4744 46.9663 24.8593 47.6681 25.6273C48.3679 26.3953 48.7208 27.4881 48.7208 28.9057C48.7208 30.3314 48.3699 31.4282 47.6681 32.1961C46.9663 32.9641 45.9597 33.3491 44.6504 33.3491H42.9019V38.0672H40.2471V24.4744ZM42.9019 27.0108V30.8146H44.3677C44.883 30.8146 45.28 30.6502 45.5607 30.3173C45.8394 29.9845 45.9798 29.5153 45.9798 28.9077C45.9798 28.3001 45.8394 27.833 45.5607 27.5021C45.28 27.1753 44.883 27.0108 44.3677 27.0108H42.9019Z" fill="#6C5D55"/>
<path d="M52.6007 45.7588C52.7291 45.8511 52.8333 45.9634 52.9115 46.0917C52.9917 46.218 53.0399 46.3564 53.0619 46.5088C53.082 46.6652 53.074 46.8156 53.0359 46.9579C52.9978 47.1043 52.9336 47.2406 52.8414 47.365C52.7491 47.4893 52.6368 47.5935 52.5065 47.6717C52.3762 47.7499 52.2358 47.8001 52.0854 47.8221C51.929 47.8462 51.7786 47.8402 51.6323 47.8041C51.4859 47.768 51.3515 47.7038 51.2252 47.6116C51.0969 47.5194 50.9926 47.4071 50.9164 47.2767C50.8362 47.1484 50.7861 47.006 50.762 46.8537C50.738 46.7013 50.746 46.5529 50.7821 46.4065C50.8202 46.2601 50.8843 46.1218 50.9786 45.9955C51.0708 45.8711 51.1831 45.7669 51.3134 45.6907C51.4438 45.6125 51.5841 45.5623 51.7385 45.5403C51.8909 45.5182 52.0393 45.5263 52.1877 45.5623C52.3341 45.6004 52.4724 45.6646 52.6007 45.7588ZM52.699 41.4177C52.6669 41.0789 52.6769 40.74 52.7251 40.4031C52.7732 40.0683 52.8614 39.7334 52.9877 39.4046C53.2745 38.6607 53.7096 38.1494 54.2951 37.8727C54.8806 37.598 55.5302 37.5939 56.2501 37.8666C56.9739 38.1413 57.4592 38.5765 57.7058 39.178C57.9524 39.7775 57.9264 40.4633 57.6316 41.2333C57.5193 41.53 57.381 41.8067 57.2206 42.0574C57.0602 42.31 56.8797 42.5346 56.6752 42.7331L55.7448 42.3822C55.9834 42.1857 56.1839 41.9772 56.3483 41.7586C56.5148 41.538 56.6451 41.3054 56.7393 41.0588C56.9158 40.5996 56.9218 40.1966 56.7574 39.8497C56.595 39.5048 56.2741 39.2402 55.7929 39.0577C55.3157 38.8792 54.9026 38.8572 54.5497 38.9995C54.1988 39.1399 53.9402 39.4327 53.7697 39.8738C53.7236 39.9941 53.6895 40.1084 53.6635 40.2167C53.6394 40.3249 53.6274 40.4272 53.6294 40.5214L54.5036 40.8523L54.7743 40.1465L55.5523 40.4412L54.8645 42.2378L52.699 41.4177ZM59.4904 32.3646L59.336 33.7341L55.8571 35.0975L59.1415 35.4625L59.0092 36.6235L54.2249 36.0901L54.3793 34.7226L57.8582 33.3571L54.5738 32.9922L54.7061 31.8312L59.4904 32.3646ZM59.4082 29.1964L59.4563 30.4296L54.644 30.6181L54.5959 29.3849L59.4082 29.1964ZM55.809 25.2684L54.0184 25.6113L53.7838 24.4002L58.5139 23.4918L58.8728 25.3406C58.9931 25.9602 58.9751 26.4334 58.8247 26.7602C58.6723 27.0891 58.3695 27.2976 57.9184 27.3838C57.6056 27.444 57.3349 27.4179 57.1043 27.3056C56.8757 27.1933 56.6832 26.9968 56.5288 26.7121C56.5228 26.8845 56.4666 27.051 56.3564 27.2074C56.2481 27.3638 56.0696 27.5362 55.825 27.7207L54.6099 28.639L54.3572 27.3477L55.42 26.5497C55.6345 26.3893 55.7749 26.2429 55.837 26.1065C55.9012 25.9722 55.9132 25.8078 55.8751 25.6093L55.809 25.2684ZM56.7514 25.6133C56.7995 25.8659 56.8837 26.0404 57 26.1326C57.1163 26.2248 57.2847 26.2489 57.5013 26.2068C57.7178 26.1647 57.8602 26.0825 57.9324 25.9541C58.0026 25.8258 58.0146 25.6353 57.9665 25.3827L57.8662 24.8734L56.6531 25.106L56.7514 25.6133ZM55.8731 17.3962L56.4285 18.4991L53.8459 19.7823C53.491 19.9608 53.2644 20.1433 53.1702 20.3358C53.078 20.5262 53.094 20.7528 53.2263 21.0155C53.3607 21.2782 53.5311 21.4286 53.7417 21.4687C53.9522 21.5068 54.2369 21.4386 54.5918 21.2621L57.1725 19.9768L57.7279 21.0817L55.1473 22.365C54.5377 22.6677 54.0083 22.7419 53.5552 22.5855C53.104 22.4291 52.7231 22.0401 52.4082 21.4205C52.0954 20.7989 52.0112 20.2636 52.1556 19.8124C52.302 19.3593 52.6789 18.9823 53.2865 18.6795L55.8731 17.3962ZM52.5526 12.5959L55.1573 16.1651L54.3973 16.7125L53.4589 15.4252L50.3189 17.685L49.591 16.6864L52.7311 14.4266L51.7927 13.1413L52.5526 12.5959ZM48.4922 14.8577C48.2416 14.8036 48.001 14.7194 47.7744 14.6051C47.5458 14.4928 47.3293 14.3524 47.1227 14.178C46.5091 13.6647 46.1683 13.0892 46.0981 12.4496C46.0279 11.8079 46.2385 11.1964 46.7317 10.6129C47.227 10.0274 47.7985 9.71457 48.4441 9.67446C49.0918 9.63235 49.7234 9.86896 50.3369 10.3803C50.5435 10.5507 50.7199 10.7392 50.8703 10.9437C51.0207 11.1462 51.145 11.3668 51.2433 11.6034L50.6016 12.3613C50.5254 12.0947 50.4272 11.8601 50.3029 11.6636C50.1785 11.463 50.0221 11.2866 49.8337 11.1282C49.4948 10.8455 49.1359 10.7312 48.7589 10.7853C48.3819 10.8374 48.0331 11.054 47.7122 11.433C47.3934 11.8119 47.239 12.1889 47.251 12.5679C47.2611 12.9448 47.4375 13.2757 47.7764 13.5604C47.9649 13.7168 48.1694 13.8411 48.388 13.9294C48.6065 14.0156 48.8552 14.0737 49.1319 14.0998L48.4922 14.8577ZM43.0022 9.07693L44.1611 9.70655L44.504 7.72547L43.0022 9.07693ZM44.0047 10.6329L42.3044 9.70655L41.6126 10.3261L40.5178 9.73061L44.3937 6.38404L45.6931 7.08985L44.9451 12.1348L43.8503 11.5392L44.0047 10.6329ZM39.022 4.19042L42.1981 5.24512L41.9013 6.12939L39.9022 5.46569L39.6175 6.31185L41.4983 6.93545L41.2016 7.81771L39.3207 7.19411L38.6731 9.11904L37.4961 8.72603L39.022 4.19042ZM32.8522 3.14575L34.0813 3.31418L33.6883 6.15545C33.6342 6.54645 33.6623 6.83519 33.7665 7.02167C33.8708 7.20614 34.0693 7.31843 34.362 7.36054C34.6568 7.39864 34.8774 7.3445 35.0298 7.19411C35.1821 7.04573 35.2844 6.77303 35.3385 6.38003L35.7316 3.53875L36.9607 3.70518L36.5677 6.54645C36.4755 7.21817 36.2388 7.6954 35.8539 7.97611C35.4709 8.25884 34.9315 8.35107 34.2377 8.25683C33.544 8.1646 33.0527 7.92799 32.7599 7.55504C32.4652 7.18208 32.3669 6.65874 32.4592 5.98903L32.8522 3.14575ZM26.1651 3.59891L27.5426 3.45253L29.6359 6.53041L29.285 3.26606L30.456 3.14174L30.9694 7.89791L29.5918 8.04429L27.4985 4.96641L27.8494 8.23077L26.6804 8.35508L26.1651 3.59891ZM22.4415 7.84578L23.6887 7.41869L22.4415 5.83463V7.84578ZM24.2762 8.15457L22.4415 8.78619L22.4395 9.71056L21.2585 10.1156L21.3708 5.01654L22.7684 4.53731L26.0287 8.4794L24.8477 8.88444L24.2762 8.15457ZM13.5909 9.31554L14.9203 8.46938L17.2342 10.0394L16.773 7.29236L18.1024 6.4462L20.6991 10.4745L19.7105 11.1061L17.8097 8.15858L18.2769 10.9257L17.6152 11.3467L15.2792 9.7687L17.1801 12.7142L16.1895 13.3439L13.5909 9.31554ZM11.1907 47.5996C11.0544 47.6798 10.91 47.7339 10.7616 47.756C10.6132 47.78 10.4649 47.772 10.3145 47.7339C10.1621 47.6938 10.0257 47.6276 9.90543 47.5374C9.78312 47.4472 9.68286 47.3369 9.60065 47.2025C9.52045 47.0702 9.46631 46.9278 9.44425 46.7795C9.42019 46.6291 9.42821 46.4807 9.4643 46.3343C9.5024 46.1819 9.56656 46.0456 9.65479 45.9273C9.74502 45.807 9.8553 45.7067 9.98965 45.6265C10.126 45.5463 10.2684 45.4922 10.4187 45.4701C10.5711 45.4481 10.7215 45.4541 10.8699 45.4922C11.0203 45.5303 11.1566 45.5924 11.281 45.6806C11.4033 45.7709 11.5055 45.8832 11.5877 46.0195C11.6679 46.1539 11.7221 46.2942 11.7441 46.4426C11.7682 46.591 11.7602 46.7394 11.7221 46.8897C11.684 47.0361 11.6198 47.1725 11.5296 47.2948C11.4394 47.4171 11.3251 47.5174 11.1907 47.5996ZM10.2122 16.6162C10.0839 16.524 9.97962 16.4117 9.90142 16.2834C9.82122 16.1571 9.77309 16.0167 9.75104 15.8663C9.73099 15.7099 9.737 15.5595 9.7771 15.4152C9.8152 15.2688 9.87937 15.1344 9.9716 15.0101C10.0638 14.8858 10.1761 14.7815 10.3065 14.7033C10.4368 14.6251 10.5772 14.575 10.7275 14.553C10.8839 14.5269 11.0343 14.5349 11.1807 14.571C11.3271 14.6071 11.4614 14.6713 11.5877 14.7635C11.7161 14.8557 11.8203 14.968 11.8965 15.0963C11.9767 15.2267 12.0289 15.367 12.0509 15.5214C12.075 15.6718 12.067 15.8222 12.0309 15.9686C11.9948 16.115 11.9286 16.2533 11.8344 16.3796C11.7421 16.5039 11.6298 16.6062 11.4995 16.6844C11.3692 16.7626 11.2288 16.8127 11.0744 16.8348C10.922 16.8569 10.7737 16.8488 10.6253 16.8127C10.4769 16.7766 10.3385 16.7125 10.2122 16.6162ZM4.20484 23.5079L4.7001 22.3028C4.97681 21.6311 5.23147 21.1498 5.46206 20.8611C5.69465 20.5724 5.97336 20.3558 6.3002 20.2134C6.58694 20.0871 6.8837 20.027 7.18848 20.033C7.49125 20.039 7.80806 20.1092 8.14292 20.2435C8.47978 20.3799 8.7585 20.5523 8.98106 20.7608C9.20163 20.9694 9.37207 21.218 9.48837 21.5048C9.62271 21.8376 9.66682 22.1885 9.62672 22.5595C9.58862 22.9304 9.43022 23.4477 9.15752 24.1114L8.66225 25.3165L4.20484 23.5079ZM5.54226 22.7179L8.26523 23.8227L8.43166 23.4136C8.62415 22.9464 8.65423 22.5434 8.52189 22.2025C8.39156 21.8637 8.10282 21.603 7.65968 21.4205C7.21655 21.2421 6.82956 21.228 6.49871 21.3784C6.16786 21.5288 5.90519 21.8396 5.7127 22.3088L5.54226 22.7179ZM3.40679 28.1839C3.49301 27.4199 3.77975 26.8444 4.269 26.4614C4.75825 26.0785 5.38987 25.9281 6.16385 26.0143C6.93783 26.1005 7.52133 26.3852 7.91233 26.8665C8.30333 27.3477 8.45572 27.9733 8.3695 28.7373C8.28328 29.4972 7.99654 30.0707 7.50729 30.4577C7.01804 30.8427 6.38843 30.991 5.61445 30.9048C4.84046 30.8186 4.25697 30.5339 3.86396 30.0506C3.47296 29.5674 3.32057 28.9458 3.40679 28.1839ZM4.30108 28.2841C4.25898 28.6571 4.36525 28.9638 4.6199 29.2005C4.87455 29.4371 5.25352 29.5834 5.75882 29.6396C6.26411 29.6957 6.66313 29.6356 6.96591 29.4611C7.26668 29.2847 7.43711 29.01 7.47922 28.635C7.52133 28.2621 7.41506 27.9533 7.1604 27.7167C6.90575 27.48 6.52879 27.3337 6.02349 27.2775C5.52021 27.2214 5.11717 27.2815 4.8164 27.456C4.51563 27.6324 4.34319 27.9091 4.30108 28.2841ZM3.52309 34.871C3.43086 34.107 3.57723 33.4834 3.96422 32.9982C4.35121 32.5129 4.9327 32.2242 5.70668 32.132C6.47866 32.0397 7.11228 32.1821 7.60354 32.5631C8.0948 32.944 8.38554 33.5155 8.47978 34.2775C8.57202 35.0374 8.42364 35.663 8.03865 36.1502C7.65166 36.6355 7.07218 36.9262 6.2982 37.0185C5.52422 37.1107 4.89059 36.9683 4.39733 36.5854C3.90607 36.2044 3.61332 35.6329 3.52309 34.871ZM4.41337 34.7647C4.45949 35.1377 4.63394 35.4124 4.93671 35.5848C5.23949 35.7572 5.64252 35.8134 6.14581 35.7532C6.64709 35.6931 7.02606 35.5427 7.27871 35.3061C7.53135 35.0655 7.63362 34.7607 7.5895 34.3857C7.54339 34.0128 7.36894 33.7361 7.06616 33.5636C6.76339 33.3912 6.36036 33.335 5.85907 33.3952C5.35578 33.4553 4.97882 33.6057 4.72417 33.8423C4.47353 34.083 4.36725 34.3917 4.41337 34.7647ZM8.60611 37.6681C8.86076 37.8947 9.08734 38.1474 9.28384 38.4281C9.47834 38.7048 9.64476 39.0076 9.7771 39.3344C10.0819 40.0723 10.114 40.74 9.87535 41.3395C9.63875 41.9391 9.16353 42.3802 8.45372 42.6709C7.73588 42.9617 7.0802 42.9717 6.48868 42.699C5.89717 42.4283 5.44401 41.911 5.1292 41.149C5.00689 40.8543 4.91866 40.5615 4.86453 40.2688C4.80638 39.976 4.78432 39.6893 4.79635 39.4066L5.71871 39.0316C5.67861 39.3364 5.6726 39.6251 5.70468 39.8978C5.73275 40.1705 5.80092 40.4292 5.90118 40.6738C6.08966 41.129 6.36036 41.4278 6.71727 41.5701C7.07418 41.7125 7.49125 41.6864 7.96647 41.4939C8.43767 41.3034 8.75449 41.0348 8.91289 40.6939C9.0713 40.353 9.06127 39.962 8.88081 39.5229C8.83269 39.4046 8.77855 39.2983 8.7224 39.2021C8.66626 39.1078 8.6041 39.0236 8.53994 38.9574L7.67171 39.3083L7.95845 40.0061L7.18647 40.3189L6.4546 38.5384L8.60611 37.6681Z" fill="#FFE5D3"/>
<path d="M15.1649 48.5279L16.7469 49.8253C17.2162 50.2102 17.4929 50.6113 17.5731 51.0283C17.6533 51.4434 17.535 51.8444 17.2202 52.2314C16.9013 52.6204 16.5324 52.8149 16.1093 52.8189C15.6842 52.8209 15.2391 52.6304 14.7659 52.2434L14.1383 51.7281L13.0856 53.0134L12.1311 52.2314L15.1649 48.5279ZM15.5539 49.9997L14.7057 51.0344L15.2331 51.4655C15.4175 51.6179 15.598 51.69 15.7725 51.682C15.9469 51.674 16.1013 51.5878 16.2376 51.4213C16.372 51.2549 16.4261 51.0885 16.4001 50.916C16.374 50.7436 16.2657 50.5832 16.0812 50.4308L15.5539 49.9997ZM19.6404 54.2446C19.8669 54.3669 20.0534 54.411 20.1978 54.3789C20.3422 54.3468 20.4645 54.2325 20.5687 54.0401C20.673 53.8476 20.6971 53.6831 20.6429 53.5488C20.5888 53.4144 20.4484 53.2841 20.2198 53.1618L19.7647 52.9192L19.1832 53.9999L19.6404 54.2446ZM18.7802 54.7519L17.922 56.346L16.8372 55.7625L19.097 51.5497L20.7552 52.44C21.3106 52.7367 21.6675 53.0495 21.826 53.3743C21.9844 53.6992 21.9563 54.0621 21.7397 54.4651C21.5914 54.7439 21.4009 54.9363 21.1703 55.0426C20.9397 55.1469 20.667 55.1709 20.3502 55.1108C20.4805 55.2251 20.5727 55.3735 20.6249 55.5559C20.679 55.7384 20.6991 55.983 20.691 56.2918L20.6389 57.8077L19.4799 57.1861L19.5281 55.8627C19.5381 55.598 19.512 55.3955 19.4459 55.2632C19.3817 55.1288 19.2614 55.0145 19.0849 54.9203L18.7802 54.7519ZM25.4051 58.2408L23.5323 57.7796L23.029 58.5536L21.826 58.2568L24.6913 54.036L26.1189 54.3869L26.6944 59.4539L25.4913 59.1572L25.4051 58.2408ZM24.0456 56.9936L25.3169 57.3084L25.1384 55.3053L24.0456 56.9936ZM32.2085 59.5221C31.9759 59.6324 31.7393 59.7126 31.4907 59.7647C31.2421 59.8148 30.9854 59.8349 30.7187 59.8269C29.9207 59.7988 29.2991 59.5522 28.8499 59.091C28.3988 58.6318 28.1862 58.0182 28.2143 57.2583C28.2404 56.4943 28.495 55.8988 28.9763 55.4697C29.4555 55.0426 30.0931 54.8401 30.8912 54.8702C31.1578 54.8782 31.4145 54.9183 31.6571 54.9865C31.8997 55.0546 32.1323 55.1509 32.3549 55.2752L32.3188 56.2637C32.0963 56.0993 31.8757 55.977 31.6551 55.8968C31.4346 55.8166 31.202 55.7725 30.9573 55.7625C30.5182 55.7464 30.1653 55.8768 29.9046 56.1494C29.642 56.4221 29.5036 56.8051 29.4856 57.3004C29.4695 57.7937 29.5818 58.1867 29.8244 58.4774C30.0671 58.7662 30.4079 58.9205 30.847 58.9366C31.0917 58.9446 31.3263 58.9185 31.5529 58.8524C31.7774 58.7882 32.008 58.6819 32.2406 58.5336L32.2085 59.5221ZM32.9885 54.9684L37.3437 54.2807L37.4901 55.201L35.92 55.4497L36.5216 59.2534L35.3025 59.4459L34.7009 55.6422L33.1329 55.8888L32.9885 54.9684ZM38.25 53.8716L39.425 53.4926L40.8928 58.0463L39.7178 58.4253L38.25 53.8716ZM46.2104 55.1308C46.07 55.3434 45.9056 55.5359 45.7191 55.7063C45.5327 55.8768 45.3241 56.0271 45.0895 56.1555C44.3917 56.5425 43.732 56.6527 43.1104 56.4863C42.4889 56.3219 41.9916 55.9088 41.6226 55.2411C41.2537 54.5734 41.1635 53.9318 41.358 53.3162C41.5485 52.7006 41.9916 52.1993 42.6914 51.8144C42.924 51.686 43.1626 51.5878 43.4092 51.5216C43.6518 51.4534 43.9005 51.4173 44.1571 51.4113L44.6364 52.2775C44.3617 52.2515 44.109 52.2595 43.8784 52.3036C43.6478 52.3477 43.4253 52.4299 43.2107 52.5482C42.8257 52.7608 42.5911 53.0515 42.5069 53.4205C42.4227 53.7914 42.5009 54.1924 42.7395 54.6235C42.9781 55.0567 43.2749 55.3334 43.6338 55.4597C43.9907 55.584 44.3617 55.5399 44.7486 55.3253C44.9612 55.207 45.1497 55.0627 45.3101 54.8902C45.4685 54.7198 45.6088 54.5093 45.7352 54.2626L46.2104 55.1308ZM44.9632 50.489L47.5017 48.3375L48.1032 49.0493L46.5051 50.4027L47.0826 51.0825L48.5845 49.8112L49.186 50.521L47.6842 51.7943L48.392 52.6304L50.0442 51.2309L50.6457 51.9427L48.0511 54.1383L44.9632 50.489Z" fill="#FFE5D3"/>
</g>
</g>
</svg>
