<svg width="62" height="63" viewBox="0 0 62 63" fill="none" xmlns="http://www.w3.org/2000/svg">
<g id="Money back Guarantee">
<g id="Group 1598914">
<circle id="Ellipse 32" cx="31.2067" cy="31.2798" r="30.793" fill="#6C5D55"/>
<path id="image 147 (Traced)" fill-rule="evenodd" clip-rule="evenodd" d="M30.9447 6.11554C30.7899 6.22246 30.2964 6.67558 29.8479 7.12223C28.4447 8.51989 28.4788 8.51587 26.6899 7.48964C25.4477 6.77703 24.9609 6.66152 24.5149 6.97391C24.388 7.06275 23.9625 7.69812 23.5692 8.38596C22.6187 10.048 22.5732 10.0683 20.8436 9.60682C18.5789 9.00258 18.4264 9.07848 17.8919 11.0742C17.6895 11.83 17.4553 12.5589 17.3715 12.694C17.1493 13.0518 16.5534 13.1725 15.0072 13.1732C13.6991 13.1739 13.6217 13.1867 13.3606 13.4479C13.0994 13.7089 13.0866 13.7863 13.0859 15.0941C13.0853 16.644 12.9708 17.2085 12.6101 17.4409C12.4731 17.5292 11.7425 17.7691 10.9865 17.9739C8.99028 18.5146 8.91482 18.6665 9.51884 20.9293C9.98042 22.6587 9.96011 22.7041 8.29773 23.6544C7.60977 24.0476 6.97427 24.4731 6.88541 24.6C6.57296 25.0458 6.6885 25.5326 7.40124 26.7745C7.77386 27.4237 8.10651 28.094 8.14056 28.264C8.2206 28.6643 8.06711 28.8885 6.89668 30.08C5.49664 31.5052 5.49664 31.6728 6.89668 33.098C8.06711 34.2896 8.2206 34.5137 8.14056 34.914C8.10651 35.084 7.77386 35.7543 7.40124 36.4035C6.6885 37.6455 6.57296 38.1322 6.88541 38.578C6.97427 38.7049 7.60977 39.1304 8.29773 39.5236C9.96011 40.4739 9.98042 40.5193 9.51884 42.2487C9.10503 43.799 9.0865 44.2974 9.43076 44.6207C9.58593 44.7663 10.2276 45.0045 11.1092 45.2436C11.8943 45.4566 12.6093 45.6912 12.698 45.7649C12.974 45.9939 13.0854 46.6593 13.0859 48.0839C13.0866 49.3917 13.0994 49.4691 13.3606 49.7301C13.6217 49.9913 13.6991 50.0041 15.0072 50.0048C16.5574 50.0055 17.122 50.1199 17.3545 50.4806C17.4428 50.6175 17.675 51.3322 17.8704 52.0688C18.4057 54.0867 18.5805 54.175 20.8436 53.5712C22.5739 53.1095 22.6183 53.1294 23.5719 54.7968C23.9666 55.4873 24.4089 56.1302 24.5546 56.2256C25.0025 56.5191 25.4264 56.4133 26.677 55.6957C27.3335 55.3192 28.0097 54.9832 28.1797 54.9492C28.5774 54.8697 28.7738 55.0047 29.9741 56.1824C31.4122 57.5938 31.5874 57.5944 33.0146 56.1928C34.2064 55.0226 34.4305 54.8692 34.8309 54.9492C35.001 54.9832 35.6844 55.3233 36.3497 55.705C38.164 56.7457 38.3567 56.689 39.4388 54.7968C40.3923 53.1294 40.4367 53.1095 42.1671 53.5712C44.4301 54.175 44.6049 54.0867 45.1402 52.0688C45.3356 51.3322 45.5678 50.6175 45.6561 50.4806C45.8887 50.1199 46.4533 50.0055 48.0035 50.0048C49.3115 50.0041 49.3889 49.9913 49.65 49.7301C49.9112 49.4691 49.924 49.3917 49.9247 48.0839C49.9253 46.6707 50.0367 45.9938 50.3052 45.7709C50.3901 45.7006 51.1051 45.468 51.894 45.254C54.0208 44.6775 54.1002 44.5281 53.4918 42.2487C53.0302 40.5193 53.0505 40.4739 54.7129 39.5236C55.4009 39.1304 56.0364 38.7049 56.1252 38.578C56.4377 38.1322 56.3221 37.6455 55.6094 36.4035C55.2368 35.7543 54.9041 35.084 54.8701 34.914C54.7909 34.5179 54.9222 34.3264 56.1067 33.1098C57.4767 31.7026 57.4941 31.4614 56.3122 30.2712C54.9748 28.9242 54.8053 28.6936 54.8689 28.3072C54.9003 28.1173 55.2321 27.4291 55.6064 26.778C56.3222 25.5324 56.4381 25.0465 56.1252 24.6C56.0364 24.4731 55.4009 24.0476 54.7129 23.6544C53.0505 22.7041 53.0302 22.6587 53.4918 20.9293C53.9057 19.3784 53.9242 18.8794 53.5799 18.5606C53.4307 18.4226 52.7843 18.1801 51.9892 17.9641C51.2524 17.7638 50.5375 17.5281 50.4006 17.4402C50.0399 17.2088 49.9254 16.6442 49.9247 15.0941C49.924 13.7863 49.9112 13.7089 49.65 13.4479C49.3889 13.1867 49.3115 13.1739 48.0035 13.1732C46.5785 13.1727 45.913 13.0613 45.6839 12.7854C45.6103 12.6967 45.3775 11.9818 45.1669 11.1969C44.5983 9.07904 44.4466 8.99868 42.1671 9.60682C40.4374 10.0683 40.3919 10.048 39.4414 8.38596C39.0482 7.69812 38.6226 7.06275 38.4957 6.97391C38.0498 6.66152 37.5629 6.77703 36.3207 7.48964C34.5326 8.51542 34.5903 8.52201 33.181 7.13362C32.1709 6.13853 31.8702 5.9209 31.5053 5.9209C31.3518 5.9209 31.0995 6.00851 30.9447 6.11554ZM35.6154 9.70158C41.5223 10.8294 46.871 14.4222 50.1722 19.4797C51.6622 21.7625 52.8874 24.8184 53.4153 27.5689C53.6282 28.6782 53.6621 29.23 53.6621 31.589C53.6621 34.7871 53.4956 35.9292 52.6581 38.4734C50.4218 45.2683 45.1873 50.5018 38.391 52.7377C35.8463 53.575 34.704 53.7415 31.5053 53.7415C28.3066 53.7415 27.1643 53.575 24.6196 52.7377C19.7609 51.1392 15.6458 47.9827 12.8351 43.6983C11.3651 41.4575 10.1222 38.3542 9.5953 35.6091C9.38243 34.4998 9.34849 33.948 9.34849 31.589C9.34849 28.3909 9.51504 27.2488 10.3525 24.7047C12.2511 18.936 16.3129 14.2666 21.7501 11.6021C23.9094 10.5439 26.1905 9.86642 28.9937 9.4508C29.1779 9.42345 30.4588 9.41441 31.8402 9.43071C33.8592 9.45448 34.5997 9.50761 35.6154 9.70158ZM28.6588 10.4459C21.7385 11.3803 15.5952 15.7485 12.501 21.935C11.5657 23.8052 10.8366 25.8903 10.5786 27.4331L10.499 27.9089L14.3779 27.8795L18.2567 27.8502L18.5043 27.1247C19.1457 25.2448 20.253 23.45 21.6528 22.0215C23.5182 20.1178 25.5587 18.9444 28.2586 18.2229C29.2142 17.9675 29.5492 17.9359 31.3937 17.9271C33.5601 17.9167 34.0202 17.9779 35.6914 18.4991C39.7098 19.7523 43.1589 23.122 44.5037 27.1086L44.7539 27.8502L48.6227 27.8795C52.2551 27.9071 52.4914 27.8968 52.4905 27.7121C52.4885 27.3367 51.9284 25.3161 51.5286 24.2423C48.7431 16.7605 42.1183 11.4661 34.2624 10.4435C32.6818 10.2378 30.1918 10.2389 28.6588 10.4459ZM32.5756 12.1284C32.5372 12.2285 32.2303 12.7781 31.8939 13.3498C31.3005 14.3578 31.2821 14.4142 31.2821 15.2194C31.2821 16.036 31.277 16.0506 30.9757 16.1081C30.8072 16.1404 30.6314 16.1433 30.585 16.1146C30.5386 16.0859 30.5007 15.716 30.5007 15.2925C30.5007 14.5234 30.4998 14.5212 29.7232 13.3792C29.2956 12.7505 28.9565 12.2277 28.9697 12.2175C28.9828 12.2074 29.1785 12.1656 29.4046 12.1248C29.8147 12.0508 29.8163 12.052 30.3348 12.8534L30.8543 13.6563L31.2713 12.8849C31.6983 12.0952 31.7046 12.0907 32.5498 11.9609C32.6024 11.9528 32.614 12.0281 32.5756 12.1284ZM27.7538 12.5692C27.8701 12.8723 27.8289 13.0451 27.6262 13.1034C27.5187 13.1342 27.0634 13.2663 26.6142 13.3968L25.7975 13.6342L25.8739 13.99C25.9158 14.1856 25.9686 14.3775 25.9912 14.4162C26.0139 14.4549 26.4636 14.3624 26.9908 14.2104C27.5181 14.0585 27.9638 13.9515 27.9814 13.9725C27.9991 13.9936 28.0461 14.147 28.0859 14.3133C28.165 14.6435 28.2814 14.5839 26.789 14.9776C26.4973 15.0546 26.2591 15.1699 26.2594 15.2338C26.2604 15.4349 26.4897 16.1873 26.55 16.1873C26.5816 16.1873 27.0627 16.0564 27.6191 15.8963C28.4499 15.6574 28.648 15.6324 28.7268 15.7568C28.951 16.1105 28.8306 16.2818 28.2402 16.449C26.6201 16.9079 25.9014 17.094 25.8772 17.0608C25.7954 16.9488 24.805 13.2508 24.846 13.2099C24.9038 13.152 27.372 12.4176 27.5585 12.4028C27.6287 12.3972 27.7165 12.4721 27.7538 12.5692ZM37.0309 12.8483C38.1051 13.1766 38.3723 13.3321 38.5348 13.7244C38.7164 14.1628 38.6138 14.545 38.2289 14.8636L37.92 15.1194L38.1234 15.5306C38.3073 15.902 38.3113 15.9792 38.1652 16.329C37.9766 16.7799 37.5965 17.0801 37.2138 17.0801C36.9824 17.0801 34.7528 16.4478 34.6507 16.3532C34.6143 16.3194 35.727 12.7465 35.8248 12.5834C35.8538 12.5348 35.9613 12.5209 36.0636 12.5523C36.1658 12.5838 36.6012 12.717 37.0309 12.8483ZM36.3069 13.672C36.1123 14.1836 36.1678 14.2704 36.8204 14.476L37.4471 14.6735L37.6559 14.4156C37.938 14.0674 37.7856 13.8094 37.1933 13.632C36.9377 13.5555 36.6592 13.4662 36.5744 13.4336C36.479 13.397 36.3768 13.4882 36.3069 13.672ZM24.2521 15.7291L25.1723 17.3357L24.9062 17.5403C24.7599 17.6528 24.5789 17.746 24.504 17.7473C24.4291 17.7486 23.8204 17.4484 23.1511 17.0801C22.4819 16.7118 21.905 16.4105 21.8691 16.4105C21.8333 16.4105 22.0778 16.8849 22.4127 17.4648C22.7476 18.0447 23.0215 18.5456 23.0215 18.578C23.0215 18.6104 22.8771 18.7116 22.7004 18.8029L22.3793 18.969L21.4104 17.2845C20.8775 16.358 20.468 15.5308 20.5004 15.4462C20.5329 15.3617 20.6785 15.2383 20.8239 15.172C21.0542 15.0671 21.2587 15.1469 22.4064 15.7889C23.1313 16.1944 23.7393 16.5114 23.7575 16.4931C23.7757 16.4749 23.5172 15.9945 23.1828 15.4257C22.8485 14.8569 22.575 14.3497 22.575 14.2985C22.575 14.2474 22.688 14.1286 22.8262 14.0345C23.0165 13.9049 23.1082 13.8949 23.2046 13.993C23.2747 14.0643 23.746 14.8455 24.2521 15.7291ZM41.8975 15.0395C42.0758 15.1448 42.2217 15.3026 42.2217 15.39C42.2217 15.5825 41.5658 19.1959 41.4933 19.4028C41.4533 19.5171 41.3662 19.5048 41.0964 19.347C40.7695 19.1558 40.7545 19.1172 40.8181 18.6316L40.8853 18.1183L40.2093 17.7011L39.5333 17.2839L39.1467 17.5787C38.7655 17.8694 38.7556 17.8707 38.4247 17.6753C38.2402 17.5663 38.1023 17.4388 38.1182 17.392C38.1474 17.3059 41.441 14.848 41.527 14.848C41.5524 14.848 41.7191 14.9341 41.8975 15.0395ZM35.7678 15.3812C35.6951 15.624 35.6356 15.8497 35.6356 15.8828C35.6356 15.9735 36.6444 16.2989 36.9255 16.2989C37.2411 16.2989 37.4488 16.0464 37.4023 15.7191C37.3636 15.4456 36.845 15.1289 36.2374 15.0074C35.9218 14.9443 35.8915 14.9684 35.7678 15.3812ZM40.659 16.4047C40.3828 16.6433 40.1819 16.8594 40.2125 16.8847C40.4401 17.0735 40.8415 17.3033 40.9436 17.3033C41.0115 17.3033 41.1259 17.0484 41.1978 16.7368C41.4155 15.7941 41.3865 15.7761 40.659 16.4047ZM19.9005 17.3615C20.3526 17.5953 20.9852 18.359 21.1318 18.8481C21.2075 19.1007 21.2312 19.4674 21.1871 19.7021C21.0894 20.2234 20.3502 21.0413 19.8181 21.2168C18.2129 21.7465 16.4526 19.8056 17.2036 18.3339C17.7459 17.2711 18.9123 16.8505 19.9005 17.3615ZM45.3112 17.871C46.1157 18.2604 46.5753 19.1378 46.3431 19.8412C46.2114 20.2403 46.0746 20.2838 45.7423 20.0325C45.5773 19.9078 45.5312 19.7582 45.5552 19.4254C45.5804 19.0762 45.5281 18.9249 45.3048 18.7017C44.9312 18.3281 44.4858 18.3399 43.9364 18.7378C43.0743 19.3623 42.8497 20.0748 43.3472 20.6072C43.5774 20.8535 43.6872 20.8881 44.0955 20.8428C44.5364 20.7938 44.5873 20.8156 44.7455 21.1216C44.9474 21.5118 44.932 21.5357 44.4018 21.6552C43.3579 21.8906 42.3346 20.9999 42.3337 19.855C42.3331 19.1206 42.8586 18.3643 43.6576 17.9492C44.3741 17.5771 44.6747 17.5628 45.3112 17.871ZM18.4799 18.0244C18.0422 18.2151 17.7283 18.7759 17.8304 19.1848C17.933 19.5959 18.3948 20.1735 18.7799 20.3726C19.2463 20.6138 19.6086 20.5794 19.9908 20.2579C20.4101 19.9051 20.5249 19.4382 20.2995 19.0021C20.1255 18.6659 19.4064 17.973 19.2314 17.973C19.1772 17.973 19.0659 17.9497 18.9842 17.9212C18.9023 17.8928 18.6755 17.9393 18.4799 18.0244ZM17.0034 21.4491C17.9228 21.9492 18.7008 22.4001 18.7325 22.4513C18.7797 22.5274 18.6275 22.9323 18.4923 23.0908C18.4737 23.1126 17.9013 22.8239 17.2203 22.4491C16.5394 22.0743 15.9513 21.7676 15.9136 21.7676C15.8536 21.7676 16.3373 22.2227 17.7606 23.5056L18.141 23.8484L17.936 24.1752C17.8232 24.3549 17.7269 24.5118 17.7219 24.5237C17.7168 24.5358 17.1868 24.4053 16.5438 24.234C14.653 23.73 14.6284 23.7273 15.2634 24.0927C15.5703 24.2694 16.1606 24.5994 16.575 24.8262L17.3286 25.2384L17.1549 25.5741L16.9813 25.9097L15.8991 25.3308C15.3039 25.0124 14.5039 24.5789 14.1215 24.3675L13.4262 23.9831L13.7078 23.4274C13.916 23.0166 14.0391 22.8865 14.1799 22.928C14.4028 22.9939 16.1653 23.4241 16.4913 23.4922C16.621 23.5193 16.3052 23.1497 15.7378 22.6104C15.2006 22.0998 14.7609 21.6385 14.7607 21.5852C14.7604 21.4788 15.2424 20.5399 15.2974 20.5399C15.3163 20.5399 16.0839 20.9491 17.0034 21.4491ZM48.2471 21.5149C48.2485 21.5907 47.9482 21.8049 47.5798 21.9908C47.2115 22.1768 46.9101 22.367 46.9101 22.4137C46.9101 22.4604 47.3989 22.6229 47.9963 22.7747C49.0431 23.041 49.0916 23.0673 49.3298 23.4943C49.4658 23.738 49.5637 23.9507 49.5474 23.967C49.5229 23.9915 48.3876 23.7016 47.6765 23.4894C47.5385 23.4482 47.3239 23.7487 46.794 24.7245L46.0938 26.0141L45.8308 25.5512L45.5678 25.0884L46.1222 24.1901C46.427 23.6962 46.6534 23.2548 46.6252 23.2091C46.597 23.1636 46.3799 23.0935 46.1428 23.0534C45.8124 22.9976 45.6233 23.0345 45.3341 23.2108C44.8332 23.516 44.7147 23.5024 44.5148 23.1163L44.3465 22.7907L46.1028 21.8407L47.8589 20.8906L48.0518 21.1338C48.1578 21.2676 48.2458 21.439 48.2471 21.5149ZM26.2805 22.6616C25.5676 22.8114 24.8217 23.2212 24.4565 23.6637C24.1514 24.0336 23.6913 25.0654 23.6913 25.3797C23.6913 25.4735 23.9927 25.5695 24.5564 25.6553C25.7054 25.8301 25.6659 25.8381 25.7454 25.4144C25.9009 24.5859 26.974 24.085 27.6888 24.5073C28.8263 25.1791 28.1592 27.0131 26.7774 27.0131C26.5398 27.0131 26.4987 27.077 26.4347 27.5433C26.3946 27.8349 26.3359 28.2061 26.3042 28.3681L26.2464 28.663L27.0241 28.6472C27.7104 28.6333 27.8376 28.6642 28.1052 28.9104C28.7403 29.4947 28.8928 30.4809 28.48 31.3336C28.2072 31.8967 27.7986 32.147 27.1518 32.147C26.9001 32.147 26.5511 32.073 26.3763 31.9826C26.0799 31.8294 25.589 31.0335 25.589 30.7062C25.589 30.5996 25.4412 30.5815 25.0029 30.6345C23.5661 30.8084 23.5796 30.8037 23.5808 31.1245C23.584 32.0049 24.6554 33.3298 25.6714 33.7099C26.4896 34.016 27.8209 34.0133 28.6477 33.7041C29.4227 33.4142 30.2972 32.6033 30.6279 31.868C30.9766 31.0927 30.9865 29.8205 30.6486 29.1895C30.3394 28.6121 29.8861 28.1875 29.3322 27.9561L28.8894 27.7712L29.2206 27.5321C30.0674 26.9209 30.3904 26.3377 30.3866 25.4263C30.3833 24.6376 30.0937 24.0447 29.4126 23.4324C28.6128 22.7135 27.425 22.4212 26.2805 22.6616ZM34.9438 22.6986C33.0831 23.2222 32.2889 24.9177 32.2874 28.3705C32.286 31.3658 32.9332 32.9406 34.4635 33.666C35.0817 33.9591 36.2387 34.0275 37.0002 33.816C38.628 33.3641 39.4783 31.4417 39.4662 28.2408C39.4549 25.2396 38.8446 23.6603 37.4162 22.9367C36.7538 22.6011 35.6636 22.4962 34.9438 22.6986ZM36.5826 24.7011C37.0994 25.2177 37.2364 25.9737 37.2343 28.2966C37.2322 30.539 37.0902 31.3795 36.6365 31.8331C36.2187 32.2508 35.528 32.2728 35.1359 31.8809C34.6615 31.4065 34.5751 30.8369 34.5751 28.185C34.5751 25.7891 34.5819 25.7161 34.8542 25.1716C35.3059 24.2683 35.9691 24.0877 36.5826 24.7011ZM48.8874 29.6917C48.8538 29.7838 48.74 30.0976 48.6345 30.3892L48.4425 30.9194H47.7718H47.1012L47.6196 31.3151C48.195 31.7544 48.2097 31.8038 47.9693 32.4852C47.8765 32.748 47.8178 32.9802 47.8387 33.0011C47.8596 33.0219 48.1173 32.8679 48.4116 32.6588L48.9465 32.2785L49.4911 32.6697C49.7906 32.8848 50.0357 33.0149 50.0357 32.9586C50.0357 32.9024 49.9527 32.613 49.8514 32.3156C49.6466 31.715 49.6092 31.7863 50.463 31.1492L50.7612 30.9264L50.0851 30.9229L49.4089 30.9194L49.1787 30.2218C49.0452 29.8175 48.9228 29.5946 48.8874 29.6917ZM13.8265 30.5301L13.6334 31.1426H12.8974H12.1614L12.7077 31.5521C13.0082 31.7773 13.2717 31.9749 13.2933 31.9912C13.3149 32.0076 13.247 32.2786 13.1424 32.5935C13.0378 32.9083 12.9794 33.1931 13.0126 33.2264C13.0459 33.2595 13.2995 33.1242 13.5762 32.9254L14.0795 32.5641L14.646 32.971L15.2126 33.3779L15.1379 33.0695C15.0968 32.8997 15.0203 32.6446 14.968 32.5025C14.8085 32.0699 14.8527 31.9761 15.4029 31.5801L15.9331 31.1984L15.2166 31.1426L14.5 31.0868L14.3236 30.5646C14.2264 30.2773 14.1184 30.0142 14.0833 29.98C14.0483 29.9457 13.9326 30.1932 13.8265 30.5301ZM10.5201 35.4659C10.5222 35.8412 11.0821 37.8616 11.4819 38.9357C14.2795 46.4519 20.871 51.7008 28.8262 52.747C30.4897 52.9657 33.5793 52.9103 35.0764 52.6348C41.8792 51.3832 47.523 47.2065 50.5321 41.1968C51.4446 39.3744 52.1761 37.2751 52.432 35.7449L52.5116 35.2691L48.6327 35.2985L44.7539 35.3278L44.5037 36.0695C43.1542 40.07 39.7266 43.4089 35.653 44.6915C32.9624 45.5387 29.8932 45.5165 27.1518 44.63C23.2516 43.3689 19.8245 39.9752 18.5069 36.0695L18.2567 35.3278L14.388 35.2985C10.7556 35.2709 10.5193 35.2812 10.5201 35.4659ZM37.0442 36.1687C36.2806 36.3974 35.9047 37.1722 36.2415 37.8236C36.4467 38.2201 36.8191 38.4408 37.6001 38.6284C38.6107 38.871 38.8688 39.1823 38.4263 39.6247C38.1055 39.9454 37.4846 39.921 37.1375 39.5739C36.9868 39.4232 36.8635 39.2475 36.8635 39.1833C36.8635 39.1191 36.6626 39.0667 36.417 39.0667C35.8945 39.0667 35.8407 39.2431 36.1888 39.814C36.5373 40.3853 36.907 40.5635 37.7441 40.5634C38.5476 40.5633 39.1015 40.3317 39.3004 39.9127C39.7635 38.9374 39.3704 38.2045 38.2139 37.887C37.329 37.644 37.0904 37.532 37.0096 37.3216C36.8618 36.9364 37.7 36.677 38.2104 36.95C38.3292 37.0137 38.4263 37.1392 38.4263 37.2291C38.4263 37.3453 38.5551 37.3926 38.8728 37.3926C39.2474 37.3926 39.3193 37.3561 39.3193 37.1654C39.3193 36.3795 38.1099 35.8497 37.0442 36.1687ZM23.4681 38.3508V40.5367L24.744 40.4992C25.8183 40.4677 26.0697 40.4255 26.3347 40.2319C27.4506 39.4174 27.4127 37.176 26.2702 36.4169C25.9348 36.194 25.7506 36.1649 24.6794 36.1649H23.4681V38.3508ZM29.1955 36.3602C29.1272 36.5501 27.7458 40.0992 27.6316 40.378C27.5913 40.4764 27.7108 40.5175 28.0369 40.5175C28.4793 40.5175 28.5086 40.4956 28.7166 40.0106L28.9339 39.5036L29.791 39.5363L30.648 39.5689L30.8207 40.0432C30.9879 40.5027 31.0086 40.5175 31.4819 40.5175C31.7506 40.5175 31.9537 40.4738 31.9332 40.4203C31.9128 40.3669 31.5197 39.3875 31.0597 38.244L30.2235 36.1649H29.7446C29.3897 36.1649 29.2475 36.2154 29.1955 36.3602ZM31.6169 36.2202C31.6169 36.2507 31.9686 36.8391 32.3983 37.5277L33.1797 38.7797V39.6554V40.5311L33.5983 40.4963L34.017 40.4617L34.0495 39.5316L34.0821 38.6015L34.803 37.4534C35.1995 36.8218 35.5239 36.2736 35.5239 36.235C35.5239 36.1965 35.3104 36.1664 35.0495 36.1685C34.5767 36.172 34.5734 36.1749 34.0933 37.0157L33.6114 37.8594L33.2887 37.3505C33.1111 37.0705 32.887 36.6892 32.7908 36.5032C32.6355 36.2029 32.5596 36.1649 32.1164 36.1649C31.8416 36.1649 31.6169 36.1898 31.6169 36.2202ZM25.8694 37.1308C26.2619 37.5231 26.3835 38.4526 26.1354 39.164C25.976 39.621 25.7438 39.7363 24.9824 39.7363H24.3611V38.3412V36.9461H25.0229C25.4899 36.9461 25.739 37.0005 25.8694 37.1308ZM30.2716 38.7039C30.2776 38.8476 29.3767 38.9102 29.2419 38.7755C29.2045 38.7381 29.2636 38.4744 29.3731 38.1895C29.4827 37.9046 29.6108 37.5711 29.6579 37.4484C29.7282 37.2648 29.7897 37.3439 30.0046 37.8948C30.1484 38.2631 30.2685 38.6273 30.2716 38.7039ZM17.6817 39.1319C18.0323 39.3132 18.4559 39.8511 18.6645 40.3799C18.8369 40.8172 18.7525 41.467 18.4846 41.7629C18.2959 41.9713 18.2864 41.9693 18.0468 41.6689C17.8521 41.4248 17.8249 41.3113 17.9143 41.1153C18.0636 40.7876 17.9392 40.3367 17.6081 40.0057C16.8502 39.2479 15.0702 40.264 15.2846 41.3322C15.3588 41.7018 15.9248 42.3033 16.1985 42.3033C16.5878 42.3033 16.6693 42.0678 16.4196 41.6639C16.1929 41.297 16.1922 41.2821 16.3946 41.1288C16.5091 41.042 16.6553 40.9694 16.7192 40.9675C16.8345 40.964 17.7287 42.3959 17.649 42.4566C17.6262 42.4739 17.3116 42.6701 16.9498 42.8925C16.333 43.2719 16.273 43.2872 15.9865 43.139C15.1149 42.6884 14.5378 41.8279 14.5378 40.979C14.5378 40.3755 14.7509 39.9696 15.3261 39.4773C16.053 38.8552 16.9049 38.7303 17.6817 39.1319ZM45.7425 39.2972C45.7825 39.362 45.5589 39.8011 45.2454 40.2731L44.6756 41.1314L44.9836 41.3819C45.1529 41.5198 45.325 41.6327 45.366 41.6331C45.4071 41.6334 45.5557 41.4453 45.6961 41.2151C45.8366 40.985 46.0865 40.6083 46.2511 40.3782L46.5507 39.9597L46.8109 40.1703L47.071 40.3809L46.5374 41.1833C45.9639 42.0457 45.9649 42.0959 46.5631 42.447L46.9031 42.6467L47.4926 41.752C47.8169 41.26 48.1353 40.8563 48.2004 40.8549C48.2653 40.8535 48.4096 40.9189 48.5209 41.0002C48.7094 41.1381 48.6673 41.2325 47.9003 42.3925C47.4478 43.077 47.025 43.6383 46.9608 43.6399C46.8521 43.6423 43.9625 41.7411 43.7385 41.5196C43.6775 41.4593 43.9623 40.9267 44.4493 40.1901C45.152 39.1277 45.2895 38.976 45.4658 39.0703C45.578 39.1304 45.7025 39.2325 45.7425 39.2972ZM20.0786 42.2059L20.3315 42.4434L19.3323 43.543C18.2355 44.7499 18.1357 45.0178 18.6072 45.4891C19.0965 45.9784 19.3322 45.8715 20.4657 44.6463L21.4988 43.5297L21.7579 43.773C21.9003 43.9068 22.0169 44.0647 22.0169 44.1239C22.0169 44.2595 20.4101 45.9563 19.9628 46.2932C19.2555 46.8258 18.1482 46.3952 17.6262 45.3847C17.4209 44.9872 17.4153 44.9136 17.5606 44.5134C17.7146 44.0887 19.5106 41.9754 19.7214 41.9708C19.7787 41.9694 19.9396 42.0754 20.0786 42.2059ZM43.4618 42.3261C43.5824 42.5514 43.5288 42.6307 42.8326 43.2585L42.0716 43.9448L42.3263 44.3022C42.6172 44.7108 42.5626 44.7343 43.5897 43.7617L44.1205 43.2592L44.3711 43.5146L44.6217 43.7701L43.8724 44.4596L43.1232 45.1492L43.4341 45.5119C43.605 45.7115 43.784 45.8747 43.8317 45.8747C43.8795 45.8747 44.2829 45.5487 44.7282 45.1502C45.501 44.4586 45.5461 44.4349 45.7215 44.6289C45.8227 44.7406 45.9054 44.8704 45.9054 44.9174C45.9054 45.003 44.4546 46.3922 43.9544 46.7855L43.6889 46.9943L43.0948 46.352C42.7681 45.9987 42.1491 45.3397 41.7193 44.8876L40.9379 44.0655L41.9984 43.0756C42.5817 42.5312 43.1199 42.0844 43.1945 42.0828C43.2691 42.0813 43.3894 42.1908 43.4618 42.3261ZM40.7806 44.6661C40.9222 44.9305 40.8908 44.9682 40.2232 45.338L39.8825 45.5266L40.6596 46.9005C41.0871 47.656 41.4376 48.3285 41.4386 48.3949C41.4395 48.4613 41.3096 48.5854 41.1499 48.6709C40.7962 48.8601 40.8101 48.8762 39.8673 47.1861C39.4993 46.5261 39.1732 45.9863 39.1426 45.9863C39.1121 45.9863 38.8902 46.0867 38.6495 46.2095C38.0949 46.4924 38.0415 46.4895 37.8955 46.169C37.7804 45.9166 37.8309 45.8739 39.0775 45.1682C39.7937 44.7628 40.4408 44.4295 40.5154 44.4275C40.59 44.4255 40.7093 44.5328 40.7806 44.6661ZM24.1434 45.2637C24.4208 45.4072 24.4718 45.4996 24.467 45.8497C24.4584 46.4846 24.0792 49.6535 24.0028 49.73C23.9657 49.7671 23.7811 49.7176 23.5924 49.6201C23.27 49.4533 23.2535 49.4139 23.3158 48.9596L23.382 48.4763L22.6716 48.0758L21.9611 47.6752L21.6112 48.0119L21.2614 48.3487L20.8514 48.1383L20.4414 47.928L22.0942 46.5117C23.0033 45.7327 23.7622 45.095 23.7806 45.0944C23.7989 45.0939 23.9622 45.1701 24.1434 45.2637ZM37.5209 46.8512C38.2325 49.2843 38.4086 49.9423 38.3665 50.0107C38.3406 50.0526 38.1613 50.1185 37.9682 50.1571C37.6462 50.2215 37.5292 50.1479 36.5599 49.2708C35.9783 48.7446 35.4791 48.3376 35.4505 48.3663C35.4219 48.3949 35.5467 48.9262 35.728 49.547C35.9093 50.1677 36.0255 50.6934 35.9862 50.7151C35.9468 50.7368 35.7799 50.7867 35.6153 50.826C35.3871 50.8805 35.3022 50.8509 35.2585 50.7019C35.2269 50.5943 34.9953 49.7781 34.7437 48.8881C34.4922 47.998 34.2661 47.2099 34.2414 47.1369C34.2168 47.0638 34.3693 46.947 34.5805 46.8773C34.964 46.7508 34.9659 46.7519 36.0305 47.7356C36.6169 48.2773 37.1399 48.7358 37.1928 48.7543C37.2457 48.7729 37.1439 48.2958 36.9665 47.6941C36.7893 47.0924 36.6432 46.5357 36.6421 46.457C36.6404 46.3334 36.9809 46.1266 37.2216 46.1049C37.265 46.1011 37.3997 46.4369 37.5209 46.8512ZM23.0941 46.6645C22.8081 46.9162 22.6026 47.1683 22.6374 47.2247C22.722 47.3615 23.3641 47.69 23.426 47.628C23.4905 47.5635 23.6969 46.2894 23.6503 46.2429C23.6305 46.223 23.3802 46.4127 23.0941 46.6645ZM27.4867 46.6092C28.9168 46.9261 29.2634 47.1913 29.2692 47.9723C29.2733 48.5305 28.9284 48.9625 28.3933 49.0695L28.0663 49.1349L28.2778 49.4933C28.3941 49.6905 28.5882 50.1391 28.709 50.4902L28.9287 51.1286L28.5147 51.0539C28.2869 51.0128 28.0673 50.9604 28.0264 50.9374C27.9856 50.9144 27.8168 50.5317 27.6513 50.087C27.3421 49.2562 27.0521 48.8881 26.7068 48.8881C26.5747 48.8881 26.4865 49.0054 26.4386 49.2448C26.3993 49.4408 26.3149 49.7957 26.2508 50.0335C26.1398 50.446 26.1185 50.462 25.778 50.3892C25.582 50.3472 25.4083 50.3013 25.3921 50.2872C25.3759 50.273 25.5638 49.4125 25.8095 48.375C26.0553 47.3374 26.2569 46.4474 26.2575 46.3973C26.2582 46.3471 26.3466 46.3325 26.4541 46.3648C26.5616 46.3971 27.0262 46.507 27.4867 46.6092ZM33.0882 49.0834C33.5509 50.1729 33.9241 51.0703 33.9174 51.0774C33.9108 51.0847 33.7272 51.1228 33.5094 51.162C33.1269 51.231 33.1049 51.2161 32.8674 50.7272L32.6215 50.2211L31.868 50.2953C31.4536 50.336 31.0895 50.3913 31.0588 50.418C31.0281 50.4447 30.9486 50.6262 30.8821 50.8213C30.7795 51.1221 30.699 51.1812 30.3519 51.2106C30.1267 51.2297 29.9425 51.1994 29.9425 51.1434C29.9425 51.0873 30.2454 50.218 30.6155 49.2114C30.9857 48.2049 31.3106 47.3186 31.3375 47.2419C31.3653 47.1628 31.5733 47.1023 31.8168 47.1023H32.2469L33.0882 49.0834ZM26.8817 47.5124C26.8402 47.6858 26.7822 47.9094 26.7527 48.009C26.7121 48.1464 26.8203 48.2209 27.1981 48.316C27.9852 48.5142 28.2555 48.4798 28.3998 48.1631C28.5564 47.8195 28.3151 47.4968 27.8289 47.3996C27.655 47.3648 27.3877 47.305 27.2348 47.2666C26.9977 47.2071 26.946 47.2431 26.8817 47.5124ZM31.582 48.8127C31.4784 49.1412 31.3937 49.4432 31.3937 49.4838C31.3937 49.5244 31.6189 49.5577 31.8943 49.5577H32.3951L32.1655 48.9718C32.0392 48.6496 31.8986 48.3475 31.853 48.3007C31.8075 48.2538 31.6856 48.4843 31.582 48.8127Z" fill="#FFE5D3"/>
</g>
</g>
</svg>
