<svg width="23" height="24" viewBox="0 0 23 24" fill="none" xmlns="http://www.w3.org/2000/svg">
<g id="Vector">
<path d="M22.5173 17.7917C21.6094 18.866 20.5587 19.8059 19.3956 20.5843C17.3743 22.0254 15.0879 23.0358 12.6737 23.5547C11.6624 23.7291 10.6272 23.6975 9.62793 23.4618C8.70129 23.2375 7.60755 23.8254 6.65053 23.9182C5.61574 24.0943 4.55352 23.9848 3.57438 23.6011C2.78219 23.1284 2.12703 22.4505 1.67553 21.6363C1.21135 20.8495 0.946781 19.9574 0.905675 19.0404C0.86457 18.1235 1.04822 17.2105 1.44007 16.3839C2.10192 15.1386 3.20349 14.1959 4.52192 13.7464C5.84034 13.2969 7.2772 13.3742 8.54178 13.9627C8.76522 14.0591 8.98106 14.1729 9.18739 14.303L9.25575 14.2334C9.93849 13.5514 10.8111 13.1003 11.7546 12.9416C12.6645 12.7976 13.5959 12.9351 14.4282 13.3361V8.60974C14.5122 8.28601 14.5244 7.94732 14.464 7.61819C14.4036 7.28906 14.272 6.97775 14.0788 6.70681C13.918 6.49216 13.7171 6.31197 13.4877 6.17657C13.2583 6.04117 13.0049 5.95323 12.742 5.91779C12.3395 5.89458 12.3167 6.09571 11.7926 6.09571C11.1318 6.09571 10.9116 5.8327 10.3799 5.87911C9.76464 5.93326 9.6811 6.3123 9.21778 6.38192C8.40507 6.50569 7.41007 5.4846 7.10625 4.62597C6.58217 3.13302 7.67591 1.53951 8.71648 0.595783C9.68869 -0.286061 10.1672 -0.0462617 11.3445 0.402396C12.3252 0.776115 13.2751 1.22878 14.1852 1.7561C14.9724 2.2164 15.7262 2.73342 16.441 3.3032C17.9815 4.99313 19.2944 6.88428 20.3451 8.92689C21.4316 11.0384 22.2265 13.2927 22.7072 15.6258C22.8895 16.4767 23.1022 17.0182 22.5173 17.7917Z" fill="#462B13"/>
<path d="M9.0886 14.5893C8.69329 15.5758 8.56224 16.6516 8.70883 17.7066C8.72304 17.8081 8.69757 17.9111 8.6379 17.9936C8.57823 18.0761 8.48914 18.1314 8.38982 18.1476H8.33665C8.24472 18.1477 8.1558 18.1142 8.08609 18.0531C8.01639 17.9921 7.97054 17.9075 7.95688 17.8149C7.78996 16.6234 7.93945 15.4081 8.38982 14.2953C8.43269 14.1809 8.48351 14.0698 8.54178 13.9627C8.76522 14.0591 8.98106 14.1729 9.18739 14.303L9.25575 14.2334C9.19246 14.3482 9.13658 14.467 9.0886 14.5893ZM12.2468 21.9395C11.4602 21.9356 10.6835 21.7613 9.96815 21.4282C9.91851 21.4098 9.8732 21.381 9.83511 21.3437C9.79702 21.3064 9.76698 21.2615 9.74692 21.2117C9.72685 21.1619 9.71721 21.1084 9.7186 21.0546C9.71999 21.0009 9.73238 20.948 9.75498 20.8993C9.77758 20.8507 9.80989 20.8074 9.84986 20.7722C9.88982 20.737 9.93655 20.7107 9.98707 20.695C10.0376 20.6792 10.0908 20.6744 10.1432 20.6808C10.1957 20.6871 10.2463 20.7046 10.2917 20.732C10.8603 21.004 11.4785 21.1514 12.1065 21.1647C12.7346 21.178 13.3583 21.057 13.9375 20.8093C14.7987 20.4091 15.5085 19.734 15.9594 18.8863C16.0077 18.7962 16.0891 18.7294 16.1857 18.7004C16.2823 18.6715 16.3863 18.6828 16.4748 18.732C16.5632 18.7811 16.6288 18.864 16.6573 18.9624C16.6857 19.0609 16.6745 19.1668 16.6263 19.2568C16.0952 20.2536 15.2599 21.047 14.2466 21.5171C13.6168 21.8002 12.9352 21.9441 12.2468 21.9395Z" fill="#462B13"/>
</g>
</svg>
