<svg width="23" height="22" viewBox="0 0 23 22" fill="none" xmlns="http://www.w3.org/2000/svg">
<path id="Vector" d="M11.9 0C5.85002 0 0.900024 4.95 0.900024 11C0.900024 17.05 5.85002 22 11.9 22C17.95 22 22.9 17.05 22.9 11C22.9 4.95 17.95 0 11.9 0ZM15.31 10.34L12.45 11.99C11.9 12.32 11.24 12.1 10.91 11.55C10.8 11.33 10.8 11.22 10.8 11V5.5C10.8 4.84 11.24 4.4 11.9 4.4C12.56 4.4 13 4.84 13 5.5V9.13L14.21 8.47C14.76 8.14 15.42 8.36 15.75 8.91C16.08 9.46 15.86 10.01 15.31 10.34Z" fill="#462B13"/>
</svg>
