<svg width="26" height="24" viewBox="0 0 26 24" fill="none" xmlns="http://www.w3.org/2000/svg">
<path id="Vector" d="M22.8366 3.17693L22.8354 3.17569C21.5296 1.83436 19.8039 1.0207 17.9693 0.883027C16.1724 0.748178 14.3886 1.27068 12.9266 2.35661C11.3837 1.20172 9.4804 0.680698 7.58541 0.898492C5.65293 1.1206 3.87461 2.09429 2.60792 3.62165C1.34137 5.14885 0.680077 7.11642 0.755891 9.12808C0.831699 11.1396 1.63895 13.0476 3.01661 14.4677C3.01672 14.4678 3.01684 14.4679 3.01696 14.468L10.2233 22.0098L10.2238 22.0103C10.9271 22.7394 11.8817 23.15 12.8782 23.15C13.8748 23.15 14.8294 22.7394 15.5327 22.0103L15.5332 22.0098L22.7387 14.4689C22.7389 14.4686 22.7392 14.4684 22.7394 14.4681C23.4628 13.7344 24.039 12.8599 24.4354 11.895C24.8319 10.9298 25.0406 9.89293 25.0497 8.84399C25.0588 7.79505 24.8681 6.75447 24.4884 5.782C24.1087 4.80953 23.5475 3.92417 22.8366 3.17693ZM3.59486 8.84065C3.59486 7.48044 4.10793 6.17531 5.02263 5.20436C5.95485 4.24958 7.21066 3.71528 8.51793 3.71528C9.82539 3.71528 11.0814 4.24973 12.0136 5.20476C12.1388 5.33563 12.2881 5.43984 12.4529 5.5111C12.6179 5.58247 12.7952 5.6193 12.9743 5.6193C13.1535 5.6193 13.3308 5.58247 13.4958 5.5111C13.6606 5.43983 13.8099 5.33561 13.9351 5.20472C14.8673 4.24972 16.1233 3.71528 17.4307 3.71528C18.7381 3.71528 19.994 4.24965 20.9262 5.20455C21.848 6.17659 22.3656 7.48694 22.3656 8.85312C22.3656 10.089 21.9421 11.2791 21.1789 12.2145L20.9263 12.4767L13.7192 19.957L13.7187 19.9574C13.6207 20.06 13.5044 20.141 13.3767 20.1963C13.2491 20.2515 13.1123 20.2798 12.9743 20.2798C12.8364 20.2798 12.6996 20.2515 12.5719 20.1963C12.4442 20.141 12.3279 20.06 12.2299 19.9574L12.2295 19.957L5.02353 12.4779C5.02334 12.4777 5.02315 12.4775 5.02296 12.4773C4.10806 11.5063 3.59486 10.201 3.59486 8.84065ZM15.3287 10.6106H14.2775V9.51388C14.2775 9.14521 14.1364 8.79057 13.8837 8.52825C13.6307 8.26573 13.2865 8.11717 12.9263 8.11717C12.5661 8.11717 12.2218 8.26573 11.9689 8.52825C11.7162 8.79057 11.5751 9.14521 11.5751 9.51388V10.6106H10.5239C10.1637 10.6106 9.81946 10.7592 9.56653 11.0217C9.31378 11.284 9.17273 11.6386 9.17273 12.0073C9.17273 12.376 9.31378 12.7306 9.56653 12.9929C9.81946 13.2554 10.1637 13.404 10.5239 13.404H11.5751V14.5007C11.5751 14.8694 11.7162 15.224 11.9689 15.4864C12.2218 15.7489 12.5661 15.8974 12.9263 15.8974C13.2865 15.8974 13.6307 15.7489 13.8837 15.4864C14.1364 15.224 14.2775 14.8694 14.2775 14.5007V13.404H15.3287C15.6889 13.404 16.0331 13.2554 16.286 12.9929C16.5388 12.7306 16.6798 12.376 16.6798 12.0073C16.6798 11.6386 16.5388 11.284 16.286 11.0217C16.0331 10.7592 15.6889 10.6106 15.3287 10.6106Z" fill="#462B13" stroke="#462B13" stroke-width="0.3"/>
</svg>
