<svg width="23" height="22" viewBox="0 0 23 22" fill="none" xmlns="http://www.w3.org/2000/svg">
<path id="Vector" d="M22.8831 8.91176C22.993 8.36218 22.5533 7.70269 22.0037 7.70269L15.7386 6.82337L12.8808 1.10777C12.7709 0.887944 12.661 0.778029 12.4411 0.668113C11.8915 0.338368 11.2321 0.558198 10.9023 1.10777L8.15443 6.82337L1.88926 7.70269C1.55952 7.70269 1.33969 7.8126 1.22977 8.03243C0.790109 8.47209 0.790109 9.13159 1.22977 9.57125L5.73629 13.9679L4.63714 20.233C4.63714 20.4529 4.63714 20.6727 4.74706 20.8925C5.0768 21.4421 5.73629 21.6619 6.28587 21.3322L11.8915 18.3645L17.4972 21.3322C17.6071 21.4421 17.827 21.4421 18.0468 21.4421C18.1567 21.4421 18.1567 21.4421 18.2666 21.4421C18.8162 21.3322 19.2559 20.7826 19.146 20.1231L18.0468 13.8579L22.5533 9.46133C22.7732 9.35142 22.8831 9.13159 22.8831 8.91176Z" fill="#462B13"/>
</svg>
