<svg width="24" height="24" viewBox="0 0 24 24" fill="none" xmlns="http://www.w3.org/2000/svg">
<path id="Vector" d="M12.3995 0.616585H12.3996C18.6903 0.616585 23.78 5.71321 23.78 12.0032C23.78 16.534 21.139 20.4372 17.3113 22.2693C17.7591 21.7603 18.1255 21.1835 18.3962 20.5591C18.7501 19.7428 18.9329 18.8626 18.9333 17.9729V17.9727C18.9314 16.2405 18.2424 14.5797 17.0175 13.3549C15.7927 12.13 14.132 11.441 12.3997 11.4391H12.3995C11.6888 11.4398 10.985 11.3004 10.3283 11.0287C9.67157 10.7571 9.07487 10.3587 8.57231 9.8562C8.06976 9.35372 7.6712 8.75709 7.39948 8.10042C7.12776 7.44376 6.98819 6.73993 6.98876 6.02927L6.98876 6.02902C6.98785 5.31814 7.12717 4.61407 7.39874 3.9571C7.67031 3.30014 8.0688 2.7032 8.57139 2.20045C9.07398 1.6977 9.67079 1.299 10.3277 1.02722C10.9845 0.755443 11.6886 0.615901 12.3995 0.616585ZM1.02002 12.0032C1.02002 7.47284 3.66261 3.56623 7.49061 1.73304C6.48273 2.88187 5.86764 4.38299 5.86764 6.02831V6.02839C5.86884 7.76061 6.55751 9.42152 7.78237 10.6464C9.00724 11.8713 10.6681 12.5599 12.4004 12.5611H12.4006C13.1113 12.5605 13.8153 12.7001 14.472 12.9719C15.1288 13.2437 15.7255 13.6423 16.2281 14.1449C16.7307 14.6476 17.1292 15.2444 17.4008 15.9012C17.6725 16.558 17.812 17.2619 17.8113 17.9727V17.973C17.8122 18.6838 17.6729 19.3878 17.4013 20.0446C17.1297 20.7015 16.7312 21.2983 16.2286 21.8009C15.726 22.3035 15.1291 22.7021 14.4723 22.9736C13.8154 23.2452 13.1114 23.3846 12.4006 23.3836H12.4005C6.10964 23.3836 1.02002 18.294 1.02002 12.0032ZM13.7355 4.69237C13.3812 4.33806 12.9007 4.13901 12.3996 4.13901C11.8985 4.13901 11.418 4.33806 11.0637 4.69237C10.7093 5.04669 10.5103 5.52724 10.5103 6.02831C10.5103 6.52938 10.7093 7.00993 11.0637 7.36425C11.418 7.71856 11.8985 7.91761 12.3996 7.91761C12.9007 7.91761 13.3812 7.71856 13.7355 7.36425C14.0898 7.00993 14.2889 6.52938 14.2889 6.02831C14.2889 5.52724 14.0898 5.04669 13.7355 4.69237ZM13.7364 16.6351C13.3821 16.2808 12.9015 16.0818 12.4005 16.0818C11.8994 16.0818 11.4188 16.2808 11.0645 16.6351C10.7102 16.9894 10.5112 17.47 10.5112 17.9711C10.5112 18.4721 10.7102 18.9527 11.0645 19.307C11.4188 19.6613 11.8994 19.8604 12.4005 19.8604C12.9015 19.8604 13.3821 19.6613 13.7364 19.307C14.0907 18.9527 14.2898 18.4721 14.2898 17.9711C14.2898 17.47 14.0907 16.9894 13.7364 16.6351Z" fill="#462B13" stroke="#F8AD79" stroke-width="0.24"/>
</svg>
