<svg width="25" height="24" viewBox="0 0 25 24" fill="none" xmlns="http://www.w3.org/2000/svg">
<path id="Vector" d="M12.9 0C9.71743 0 6.66518 1.26428 4.41474 3.51472C2.16431 5.76516 0.900024 8.8174 0.900024 12C0.900024 15.1826 2.16431 18.2348 4.41474 20.4853C6.66518 22.7357 9.71743 24 12.9 24C16.0826 24 19.1349 22.7357 21.3853 20.4853C23.6357 18.2348 24.9 15.1826 24.9 12C24.9 8.8174 23.6357 5.76516 21.3853 3.51472C19.1349 1.26428 16.0826 0 12.9 0ZM12.9 4.5C14.1122 4.46284 15.3154 4.72019 16.4063 5.25L6.15002 15.5062C5.62022 14.4153 5.36286 13.2122 5.40002 12C5.40002 10.0109 6.1902 8.10322 7.59672 6.6967C9.00325 5.29018 10.9109 4.5 12.9 4.5ZM20.4 12C20.4 13.9891 19.6098 15.8968 18.2033 17.3033C16.7968 18.7098 14.8891 19.5 12.9 19.5C11.6878 19.5372 10.4847 19.2798 9.39377 18.75L19.65 8.49375C20.1798 9.58467 20.4372 10.7878 20.4 12Z" fill="#462B13"/>
</svg>
